<svg width="24" height="24" viewBox="0 0 24 24" fill="none" xmlns="http://www.w3.org/2000/svg">
<path d="M18.1555 16.8492C17.987 16.7016 17.8279 16.5622 17.751 16.4238C17.7449 16.4127 17.7382 16.4014 17.7288 16.3858C17.4344 15.9147 17.3239 14.739 17.258 14.0368C17.2481 13.9313 17.2386 13.8304 17.2291 13.736C17.2281 13.7264 17.227 13.717 17.2251 13.7026C17.0738 12.6448 16.6982 11.1195 15.7678 9.86009C15.1241 8.9887 14.3243 8.40023 13.3876 8.10781C13.2911 7.42834 12.7056 6.90417 11.9999 6.90417C11.2942 6.90417 10.7086 7.42848 10.6123 8.10794C9.67562 8.40016 8.87581 8.98863 8.23207 9.86016C7.30165 11.1193 6.92599 12.6447 6.77478 13.7025L6.77367 13.711C6.77249 13.7201 6.77145 13.7289 6.7709 13.7355C6.76132 13.8304 6.75182 13.9311 6.74197 14.0365C6.67594 14.739 6.56545 15.9149 6.26837 16.3902C6.2631 16.3989 6.25817 16.4075 6.25068 16.4206C6.17203 16.5621 6.01291 16.7017 5.84457 16.8494C5.43055 17.2121 4.56915 17.9672 5.27886 19.285C5.41612 19.54 5.68143 19.6985 5.97109 19.6985H18.0289C18.3183 19.6985 18.5835 19.5401 18.721 19.2851C19.4306 17.9675 18.5695 17.2123 18.1555 16.8492Z" fill="white"/>
<path d="M13.3696 21.0151H10.5803C10.4657 21.0151 10.358 21.0653 10.2846 21.1525C10.1472 21.3164 10.1857 21.5347 10.2086 21.6651L10.2104 21.6756C10.3622 22.5455 11.1141 23.1769 11.9983 23.1769C12.8989 23.1769 13.6717 22.5051 13.7956 21.6155L13.7983 21.6009C13.8136 21.5201 13.8494 21.3309 13.7158 21.1695C13.6681 21.1119 13.5596 21.0151 13.3696 21.0151Z" fill="white"/>
<path d="M7.04945 1.69622C6.95665 1.12912 6.42201 0.744371 5.85456 0.837593C4.28671 1.0943 2.83879 1.88731 1.77742 3.07041C0.712236 4.25801 0.0983174 5.72751 0.00211292 7.32011C-0.0325679 7.89366 0.404341 8.38675 0.977891 8.42137C0.999254 8.42268 1.02048 8.42331 1.04157 8.42331C1.58751 8.42331 2.04578 7.99778 2.07908 7.44552C2.1467 6.32658 2.57799 5.29414 3.32633 4.45986C4.08286 3.61649 5.07334 3.07401 6.19069 2.89104C6.75793 2.79816 7.14233 2.26325 7.04945 1.69622Z" fill="white"/>
<path d="M5.76623 8.89748C5.80222 8.3016 6.03195 7.75177 6.43043 7.30744C6.83335 6.85833 7.36085 6.56943 7.9559 6.47198C8.52293 6.37911 8.9074 5.84419 8.81453 5.27709C8.72172 4.71006 8.18715 4.32524 7.61963 4.41846C6.56659 4.59083 5.59414 5.12338 4.88138 5.91799C4.17618 6.70413 3.7528 7.71765 3.68912 8.77194C3.65444 9.34549 4.09135 9.83858 4.6649 9.87319C4.68627 9.87451 4.70742 9.87514 4.72858 9.87514C5.27452 9.87521 5.73286 9.44967 5.76623 8.89748Z" fill="white"/>
<path d="M23.9981 7.31967C23.9019 5.72706 23.2879 4.25757 22.2227 3.06989C21.1614 1.88679 19.7135 1.09385 18.1456 0.837139C17.5788 0.743778 17.0435 1.12867 16.9507 1.69577C16.8579 2.2628 17.2423 2.79778 17.8094 2.89066C18.9267 3.0737 19.9173 3.61611 20.6737 4.45941C21.4221 5.29376 21.8534 6.3262 21.921 7.44514C21.9543 7.9974 22.4125 8.42293 22.9585 8.42293C22.9796 8.42293 23.0009 8.42224 23.0222 8.42099C23.5958 8.38631 24.0327 7.89315 23.9981 7.31967Z" fill="white"/>
<path d="M19.1186 5.91801C18.4058 5.12348 17.4333 4.59092 16.3802 4.41856C15.8129 4.32533 15.2782 4.71008 15.1853 5.27718C15.0925 5.84428 15.4769 6.37927 16.044 6.47207C16.6391 6.56953 17.1667 6.85842 17.5695 7.30753C17.9681 7.75186 18.1977 8.30169 18.2337 8.8975C18.2669 9.44976 18.7252 9.87529 19.2712 9.87529C19.2923 9.87529 19.3135 9.87467 19.3348 9.87342C19.9085 9.83881 20.3453 9.34586 20.3107 8.77224C20.2472 7.71787 19.8238 6.70429 19.1186 5.91801Z" fill="white"/>
</svg>
