<svg width="20" height="20" viewBox="0 0 20 20" fill="none" xmlns="http://www.w3.org/2000/svg">
<g clip-path="url(#clip0)">
<path d="M15.1295 14.041C14.9891 13.918 14.8565 13.8018 14.7924 13.6865C14.7873 13.6772 14.7818 13.6678 14.7739 13.6548C14.5286 13.2622 14.4365 12.2825 14.3816 11.6973C14.3733 11.6094 14.3654 11.5253 14.3575 11.4467C14.3567 11.4387 14.3558 11.4308 14.3542 11.4188C14.2281 10.5373 13.9151 9.26624 13.1398 8.21674C12.6033 7.49058 11.9368 7.00019 11.1562 6.7565C11.0758 6.19028 10.5879 5.75348 9.99986 5.75348C9.41179 5.75348 8.92377 6.1904 8.84349 6.75662C8.06294 7.00014 7.39643 7.49052 6.85998 8.2168C6.08463 9.26612 5.77158 10.5373 5.64557 11.4188L5.64464 11.4258C5.64366 11.4334 5.64279 11.4408 5.64233 11.4462C5.63435 11.5253 5.62644 11.6092 5.61823 11.6971C5.5632 12.2825 5.47112 13.2624 5.22356 13.6585C5.21917 13.6657 5.21506 13.673 5.20882 13.6838C5.14327 13.8018 5.01068 13.9181 4.87039 14.0411C4.52538 14.3434 3.80754 14.9727 4.39897 16.0708C4.51336 16.2834 4.73445 16.4154 4.97582 16.4154H15.024C15.2652 16.4154 15.4861 16.2834 15.6008 16.0709C16.1921 14.9729 15.4745 14.3436 15.1295 14.041Z" fill="#E23535"/>
<path d="M11.1412 17.5126H8.8168C8.72131 17.5126 8.63154 17.5544 8.57045 17.6271C8.45589 17.7636 8.48796 17.9456 8.5071 18.0542L8.5086 18.063C8.63507 18.7878 9.26164 19.314 9.99849 19.314C10.749 19.314 11.393 18.7542 11.4962 18.0128L11.4985 18.0007C11.5113 17.9334 11.5411 17.7757 11.4298 17.6412C11.39 17.5932 11.2995 17.5126 11.1412 17.5126Z" fill="#E23535"/>
<path d="M5.87452 1.41359C5.79718 0.941004 5.35164 0.620381 4.87877 0.698065C3.57223 0.911988 2.36563 1.57283 1.48115 2.55874C0.5935 3.54842 0.0819006 4.77299 0.00173025 6.10017C-0.0271704 6.57812 0.33692 6.98903 0.814879 7.01788C0.832682 7.01897 0.850369 7.01949 0.86794 7.01949C1.32289 7.01949 1.70479 6.66488 1.73253 6.20467C1.78889 5.27222 2.1483 4.41185 2.77191 3.71662C3.40235 3.01381 4.22776 2.56175 5.15888 2.40927C5.63158 2.33187 5.95191 1.88611 5.87452 1.41359Z" fill="#E23535"/>
<path d="M4.80516 7.41459C4.83516 6.91802 5.02659 6.45983 5.35866 6.08955C5.69443 5.71529 6.13401 5.47455 6.62989 5.39334C7.10241 5.31594 7.4228 4.87018 7.34541 4.3976C7.26807 3.92507 6.82259 3.60439 6.34966 3.68207C5.47213 3.82571 4.66175 4.26951 4.06779 4.93168C3.48012 5.5868 3.1273 6.43139 3.07424 7.30997C3.04534 7.78793 3.40943 8.19884 3.88739 8.22768C3.90519 8.22878 3.92282 8.2293 3.94045 8.2293C4.3954 8.22936 4.77735 7.87475 4.80516 7.41459Z" fill="#E23535"/>
<path d="M19.9983 6.09972C19.9182 4.77254 19.4066 3.54796 18.5188 2.55823C17.6344 1.57231 16.4278 0.911528 15.1213 0.697605C14.6489 0.619805 14.2029 0.940544 14.1255 1.41313C14.0482 1.88565 14.3685 2.33147 14.8411 2.40887C15.7722 2.56141 16.5976 3.01341 17.228 3.71616C17.8517 4.41145 18.2111 5.27183 18.2674 6.20428C18.2952 6.66449 18.677 7.0191 19.1321 7.0191C19.1496 7.0191 19.1673 7.01852 19.1851 7.01748C19.6631 6.98858 20.0272 6.57762 19.9983 6.09972Z" fill="#E23535"/>
<path d="M15.9322 4.93168C15.3382 4.26957 14.5278 3.82577 13.6502 3.68214C13.1775 3.60445 12.7319 3.92507 12.6545 4.39766C12.5771 4.87024 12.8975 5.31606 13.37 5.3934C13.8659 5.47461 14.3056 5.71535 14.6413 6.08961C14.9734 6.45989 15.1648 6.91808 15.1947 7.41459C15.2225 7.87481 15.6044 8.22942 16.0594 8.22942C16.077 8.22942 16.0946 8.2289 16.1124 8.22786C16.5904 8.19901 16.9544 7.78822 16.9256 7.3102C16.8727 6.43157 16.5198 5.58692 15.9322 4.93168Z" fill="#E23535"/>
</g>
<defs>
<clipPath id="clip0">
<rect width="20" height="20" fill="white"/>
</clipPath>
</defs>
</svg>
