<svg width="16" height="16" viewBox="0 0 16 16" fill="none" xmlns="http://www.w3.org/2000/svg">
<circle cx="8" cy="8" r="8" fill="#E23535"/>
<path d="M11.8206 10.3223L10.5852 9.08674C10.3391 8.84164 9.93157 8.84909 9.67691 9.10384L9.05448 9.72614C9.01515 9.70446 8.97445 9.68182 8.93165 9.65781C8.53859 9.44002 8.00062 9.14151 7.43451 8.57499C6.86673 8.00727 6.56795 7.46847 6.34949 7.07516C6.32644 7.03349 6.30435 6.99331 6.28254 6.95516L6.70028 6.53804L6.90566 6.3324C7.16071 6.07729 7.16774 5.66988 6.92224 5.42407L5.68676 4.18832C5.44125 3.94286 5.03355 3.95031 4.7785 4.20542L4.4303 4.55562L4.43982 4.56507C4.32306 4.71405 4.2255 4.88587 4.15289 5.07116C4.08597 5.24754 4.0443 5.41585 4.02524 5.5845C3.86211 6.93694 4.48013 8.17296 6.15737 9.85022C8.47582 12.1685 10.3442 11.9934 10.4248 11.9848C10.6003 11.9638 10.7686 11.9219 10.9396 11.8555C11.1232 11.7838 11.2949 11.6863 11.4438 11.5698L11.4514 11.5766L11.8042 11.2312C12.0587 10.9761 12.066 10.5685 11.8206 10.3223Z" fill="white"/>
</svg>
