<svg width="17" height="18" viewBox="0 0 17 18" fill="none" xmlns="http://www.w3.org/2000/svg">
<g clip-path="url(#clip0)">
<path d="M14.1605 2.31201H1.97238C0.884403 2.31201 0 3.24414 0 4.39084V13.1705C0 14.3172 0.884403 15.2493 1.97238 15.2493H14.1571C15.2451 15.2493 16.1295 14.3172 16.1295 13.1705V4.39436C16.1328 3.24766 15.2484 2.31201 14.1605 2.31201ZM15.2317 13.1705C15.2317 13.7931 14.7512 14.2996 14.1605 14.2996H1.97238C1.38167 14.2996 0.901089 13.7931 0.901089 13.1705V4.39436C0.901089 3.77177 1.38167 3.26525 1.97238 3.26525H14.1571C14.7478 3.26525 15.2284 3.77177 15.2284 4.39436V13.1705H15.2317Z" fill="#222222"/>
<path d="M10.172 8.67166L14.1168 4.94313C14.3003 4.76726 14.317 4.46827 14.1501 4.27129C13.9833 4.07783 13.6996 4.06024 13.5127 4.23612L8.07278 9.38219L7.0115 8.38323C7.00816 8.37971 7.00482 8.37619 7.00482 8.37268C6.98146 8.34805 6.9581 8.32695 6.9314 8.30584L2.61285 4.2326C2.42596 4.05672 2.14228 4.07431 1.97541 4.27129C1.80854 4.46827 1.82523 4.76726 2.01212 4.94313L6.00361 8.70332L2.02881 12.6253C1.84859 12.8047 1.83858 13.1037 2.00879 13.2972C2.09889 13.3956 2.21904 13.4484 2.33918 13.4484C2.44932 13.4484 2.55945 13.4062 2.64622 13.3218L6.6811 9.3435L7.77576 10.3741C7.86253 10.455 7.96932 10.4937 8.07612 10.4937C8.18292 10.4937 8.29305 10.4515 8.37648 10.3706L9.50118 9.30833L13.5127 13.3253C13.5995 13.4132 13.7129 13.4554 13.8231 13.4554C13.9432 13.4554 14.06 13.4062 14.1501 13.3077C14.3203 13.1178 14.3137 12.8153 14.1334 12.6359L10.172 8.67166Z" fill="#222222"/>
</g>
<defs>
<clipPath id="clip0">
<rect width="16.1295" height="17" fill="white" transform="translate(0 0.280762)"/>
</clipPath>
</defs>
</svg>
