<svg width="17" height="18" viewBox="0 0 17 18" fill="none" xmlns="http://www.w3.org/2000/svg">
<g clip-path="url(#clip0)">
<path d="M13.443 10.8116C13.0945 10.4492 12.6741 10.2555 12.2285 10.2555C11.7865 10.2555 11.3625 10.4456 10.9996 10.808L9.86408 11.9383C9.77065 11.888 9.67723 11.8414 9.58739 11.7947C9.45803 11.7301 9.33586 11.6691 9.23165 11.6046C8.16803 10.93 7.20143 10.051 6.27435 8.91356C5.82519 8.34665 5.52335 7.86945 5.30415 7.38506C5.59881 7.11596 5.8719 6.8361 6.13781 6.567C6.23842 6.46653 6.33903 6.36248 6.43964 6.26202C7.19424 5.50853 7.19424 4.53259 6.43964 3.77911L5.45867 2.79958C5.34727 2.68836 5.23229 2.57354 5.12449 2.45872C4.90889 2.23627 4.68251 2.00663 4.44894 1.79135C4.10039 1.4469 3.68357 1.26392 3.24518 1.26392C2.8068 1.26392 2.38278 1.4469 2.02345 1.79135C2.01986 1.79494 2.01986 1.79494 2.01627 1.79853L0.794537 3.02922C0.334592 3.48848 0.0722791 4.04821 0.014786 4.69764C-0.0714537 5.74534 0.237572 6.72128 0.474731 7.35995C1.05685 8.92791 1.92643 10.3811 3.22362 11.9383C4.7975 13.8148 6.69118 15.2966 8.85436 16.3407C9.68082 16.7318 10.784 17.1947 12.0165 17.2736C12.0919 17.2772 12.171 17.2808 12.2429 17.2808C13.0729 17.2808 13.77 16.983 14.3162 16.391C14.3198 16.3838 14.327 16.3802 14.3306 16.373C14.5174 16.147 14.733 15.9425 14.9594 15.7236C15.1139 15.5765 15.272 15.4222 15.4265 15.2607C15.7823 14.8912 15.9691 14.4606 15.9691 14.0193C15.9691 13.5744 15.7787 13.1474 15.4158 12.7886L13.443 10.8116ZM14.7294 14.5898C14.7258 14.5898 14.7258 14.5934 14.7294 14.5898C14.5893 14.7405 14.4456 14.8768 14.2911 15.0275C14.0575 15.25 13.8203 15.4832 13.5975 15.7451C13.2346 16.1326 12.807 16.3156 12.2465 16.3156C12.1926 16.3156 12.1351 16.3156 12.0812 16.312C11.0139 16.2439 10.0222 15.8277 9.27837 15.4724C7.24455 14.4893 5.45867 13.0936 3.97463 11.3247C2.7493 9.85003 1.93003 8.48658 1.38743 7.02267C1.05326 6.12926 0.931083 5.43319 0.984983 4.77658C1.02092 4.35678 1.18262 4.00874 1.48086 3.71094L2.70618 2.48743C2.88226 2.32238 3.06911 2.23268 3.25237 2.23268C3.47875 2.23268 3.66201 2.36902 3.77699 2.48384C3.78059 2.48743 3.78418 2.49102 3.78777 2.4946C4.00697 2.69912 4.21538 2.91081 4.43457 3.13686C4.54596 3.25167 4.66095 3.36649 4.77594 3.4849L5.75691 4.46442C6.13781 4.84475 6.13781 5.19638 5.75691 5.57671C5.65271 5.68076 5.55209 5.78481 5.44789 5.88527C5.14605 6.19384 4.85858 6.48089 4.54596 6.76075C4.53878 6.76793 4.53159 6.77151 4.528 6.77869C4.21897 7.08726 4.27646 7.38865 4.34114 7.59317C4.34474 7.60393 4.34833 7.6147 4.35192 7.62546C4.60705 8.2426 4.96638 8.82386 5.51257 9.51634L5.51616 9.51993C6.50792 10.7399 7.55357 11.6907 8.70703 12.419C8.85436 12.5123 9.00528 12.5877 9.14901 12.6594C9.27837 12.724 9.40054 12.785 9.50475 12.8496C9.51912 12.8568 9.53349 12.8675 9.54787 12.8747C9.67004 12.9357 9.78503 12.9644 9.90361 12.9644C10.2019 12.9644 10.3887 12.7778 10.4498 12.7168L11.6787 11.4897C11.8009 11.3678 11.9949 11.2206 12.2213 11.2206C12.4441 11.2206 12.6273 11.3606 12.7387 11.4826C12.7423 11.4862 12.7423 11.4862 12.7459 11.4897L14.7258 13.4667C15.096 13.8327 15.096 14.2095 14.7294 14.5898Z" fill="#222222" stroke="#222222" stroke-width="0.25"/>
<path d="M9.18836 4.32442C10.1298 4.48229 10.985 4.92721 11.6678 5.60893C12.3505 6.29065 12.7925 7.1446 12.9542 8.08466C12.9937 8.32147 13.1985 8.48651 13.4321 8.48651C13.4608 8.48651 13.486 8.48293 13.5147 8.47934C13.7806 8.43628 13.9567 8.18512 13.9136 7.91961C13.7196 6.78221 13.1806 5.74527 12.3577 4.92362C11.5348 4.10196 10.4963 3.56376 9.35725 3.37001C9.09134 3.32695 8.8434 3.50277 8.79669 3.76469C8.74998 4.02662 8.92246 4.28137 9.18836 4.32442Z" fill="#222222" stroke="#222222" stroke-width="0.25"/>
<path d="M16.993 7.77967C16.6732 5.90673 15.7893 4.20242 14.431 2.84615C13.0727 1.48989 11.3659 0.607235 9.49021 0.287902C9.2279 0.241258 8.97996 0.420659 8.93325 0.682584C8.89013 0.948096 9.0662 1.19567 9.33211 1.24231C11.0066 1.52577 12.5337 2.31872 13.7483 3.52788C14.9628 4.74062 15.7534 6.26553 16.0372 7.93754C16.0768 8.17435 16.2816 8.3394 16.5151 8.3394C16.5439 8.3394 16.569 8.33581 16.5978 8.33222C16.8601 8.29276 17.0398 8.0416 16.993 7.77967Z" fill="#222222" stroke="#222222" stroke-width="0.25"/>
</g>
<defs>
<clipPath id="clip0">
<rect width="17" height="17" fill="white" transform="translate(0 0.280762)"/>
</clipPath>
</defs>
</svg>
