<svg width="15" height="17" viewBox="0 0 15 17" fill="none" xmlns="http://www.w3.org/2000/svg">
<g clip-path="url(#clip0)">
<path d="M7.43452 9.16008C7.45278 9.16008 7.47103 9.16008 7.49294 9.16008C7.50024 9.16008 7.50755 9.16008 7.51485 9.16008C7.5258 9.16008 7.54041 9.16008 7.55136 9.16008C8.62123 9.14247 9.48661 8.77987 10.1256 8.08635C11.5314 6.5585 11.2977 3.93933 11.2722 3.68938C11.1809 1.813 10.2607 0.915303 9.50122 0.496376C8.93525 0.183061 8.27434 0.0140816 7.53676 0H7.5112C7.50755 0 7.50024 0 7.49659 0H7.47468C7.06938 0 6.27337 0.0633672 5.51023 0.482294C4.74343 0.901222 3.80867 1.79892 3.71738 3.68938C3.69182 3.93933 3.45813 6.5585 4.86393 8.08635C5.49927 8.77987 6.36466 9.14247 7.43452 9.16008ZM4.69231 3.77739C4.69231 3.76683 4.69596 3.75626 4.69596 3.74922C4.81646 1.2251 6.67503 0.954028 7.47103 0.954028H7.48564C7.49294 0.954028 7.5039 0.954028 7.51485 0.954028C8.50073 0.97515 10.1767 1.36239 10.2899 3.74922C10.2899 3.75978 10.2899 3.77035 10.2936 3.77739C10.2972 3.80203 10.5528 6.1959 9.39168 7.4562C8.9316 7.9561 8.31816 8.20253 7.5112 8.20957C7.5039 8.20957 7.50024 8.20957 7.49294 8.20957C7.48564 8.20957 7.48199 8.20957 7.47468 8.20957C6.67137 8.20253 6.05429 7.9561 5.59786 7.4562C4.44036 6.20294 4.68866 3.79851 4.69231 3.77739Z" fill="#222222" stroke="#222222" stroke-width="0.25"/>
<path d="M14.9964 13.5043C14.9964 13.5008 14.9964 13.4973 14.9964 13.4937C14.9964 13.4656 14.9927 13.4374 14.9927 13.4057C14.9708 12.7087 14.9233 11.0787 13.3386 10.5577C13.3277 10.5542 13.3131 10.5507 13.3021 10.5472C11.6553 10.1423 10.286 9.227 10.2714 9.21644C10.0487 9.06506 9.74198 9.11787 9.58497 9.33262C9.42796 9.54736 9.48273 9.84307 9.70547 9.99445C9.76754 10.0367 11.2208 11.0118 13.0392 11.4625C13.89 11.7547 13.9849 12.6312 14.0105 13.4339C14.0105 13.4656 14.0105 13.4937 14.0141 13.5219C14.0178 13.8387 13.9959 14.3281 13.9375 14.6097C13.3459 14.9336 11.0273 16.0531 7.50002 16.0531C3.98736 16.0531 1.65411 14.9301 1.05893 14.6062C1.0005 14.3245 0.974944 13.8352 0.982247 13.5184C0.982247 13.4902 0.985898 13.462 0.985898 13.4304C1.01146 12.6277 1.1064 11.7511 1.95717 11.4589C3.77558 11.0083 5.22884 10.0297 5.29091 9.99093C5.51365 9.83955 5.56842 9.54384 5.41141 9.32909C5.2544 9.11435 4.94768 9.06154 4.72494 9.21292C4.71034 9.22348 3.34836 10.1388 1.69427 10.5436C1.67967 10.5472 1.66871 10.5507 1.65776 10.5542C0.0730455 11.0787 0.0255771 12.7087 0.00366864 13.4022C0.00366864 13.4339 0.00366864 13.4621 1.72264e-05 13.4902C1.72264e-05 13.4937 1.72264e-05 13.4973 1.72264e-05 13.5008C-0.00363419 13.6838 -0.00728561 14.6238 0.186239 15.0955C0.222753 15.187 0.288479 15.2645 0.376113 15.3173C0.485655 15.3877 3.11102 17.0001 7.50367 17.0001C11.8963 17.0001 14.5217 15.3842 14.6312 15.3173C14.7152 15.2645 14.7846 15.187 14.8211 15.0955C15.0037 14.6273 15 13.6874 14.9964 13.5043Z" fill="#222222" stroke="#222222" stroke-width="0.25"/>
</g>
<defs>
<clipPath id="clip0">
<rect width="15" height="17" fill="white"/>
</clipPath>
</defs>
</svg>
