<svg width="50" height="50" viewBox="0 0 50 50" fill="none" xmlns="http://www.w3.org/2000/svg">
<path d="M22.5807 6.45161H20.1613V0H12.0968V6.45161H9.67748V9.67742H8.06458V17.7419H9.67748V19.4927C8.73877 19.8258 8.06458 20.7226 8.06458 21.7742V33.0645C8.06458 34.1161 8.73877 35.0129 9.67748 35.346V40.3226H11.2904V45.1613H12.9033V50H19.3549V45.1613H20.9678V40.3226H22.5807V35.346C23.5194 35.0129 24.1936 34.1161 24.1936 33.0645V21.7742C24.1936 20.7226 23.5194 19.8258 22.5807 19.4927V17.7419H24.1936V9.67742H22.5807V6.45161ZM13.7097 1.6129H18.5484V3.22581H13.7097V1.6129ZM17.742 48.3871H14.5162V45.1613H17.742V48.3871ZM19.3549 43.5484H12.9033V40.3226H19.3549V43.5484ZM22.5807 33.0645C22.5807 33.5097 22.2194 33.871 21.7743 33.871H20.9678V38.7097H11.2904V33.871H10.4839C10.0388 33.871 9.67748 33.5097 9.67748 33.0645V30.6452H22.5807V33.0645ZM22.5807 25.8065H20.9678V27.4194H22.5807V29.0323H9.67748V27.4194H19.3549V25.8065H9.67748V24.1935H22.5807V25.8065ZM22.5807 16.129H20.9678V20.9677H21.7743C22.2194 20.9677 22.5807 21.329 22.5807 21.7742V22.5806H9.67748V21.7742C9.67748 21.329 10.0388 20.9677 10.4839 20.9677H11.2904V16.129H9.67748V11.2903H11.2904V8.06452H13.7097V4.83871H18.5484V8.06452H20.9678V11.2903H22.5807V16.129Z" fill="#E23535"/>
<path d="M12.9033 16.129H19.3549V11.2903H12.9033V16.129ZM14.5162 12.9032H17.742V14.5161H14.5162V12.9032Z" fill="#E23535"/>
<path d="M40.3227 11.2903V8.06452H38.7098V0H32.2582V8.06452H30.6453V11.2903H29.0323V17.4339L30.6453 18.2403V39.5161C30.6453 40.5661 31.3219 41.4532 32.2582 41.7871V50H38.7098V41.7871C39.6461 41.4532 40.3227 40.5661 40.3227 39.5161V18.2403L41.9356 17.4339V11.2903H40.3227ZM33.8711 1.6129H37.0969V8.06452H33.8711V1.6129ZM32.2582 9.67742H38.7098V11.2903H32.2582V9.67742ZM37.0969 48.3871H33.8711V41.9355H37.0969V48.3871ZM38.7098 39.5161C38.7098 39.9613 38.3485 40.3226 37.9033 40.3226H33.0646C32.6194 40.3226 32.2582 39.9613 32.2582 39.5161V29.0323H38.7098V39.5161ZM38.7098 24.1935H37.0969V25.8065H38.7098V27.4194H32.2582V25.8065H35.484V24.1935H32.2582V22.5806H38.7098V24.1935ZM40.3227 16.4371L38.7098 17.2435V20.9677H32.2582V17.2435L30.6453 16.4371V12.9032H40.3227V16.4371Z" fill="#E23535"/>
</svg>
