<svg width="50" height="50" viewBox="0 0 50 50" fill="none" xmlns="http://www.w3.org/2000/svg">
<path d="M32.8125 28.9062H35.9375V30.4688H32.8125V28.9062Z" fill="#E23535"/>
<path d="M10.1562 38.2812H11.7188V39.8438H10.1562V38.2812Z" fill="#E23535"/>
<path d="M37.5 38.2812H39.0625V39.8438H37.5V38.2812Z" fill="#E23535"/>
<path d="M47.8984 25.4484L44.0984 18.4172C43.9052 18.0637 43.6237 17.7662 43.2815 17.5536C42.9393 17.341 42.5479 17.2205 42.1453 17.2039C41.9512 14.6528 40.802 12.2688 38.9271 10.5279C37.0522 8.78699 34.5897 7.81732 32.0312 7.8125H31.25V7.03125C31.25 6.82405 31.1677 6.62534 31.0212 6.47882C30.8747 6.33231 30.676 6.25 30.4688 6.25H2.34375C2.13655 6.25 1.93784 6.33231 1.79132 6.47882C1.64481 6.62534 1.5625 6.82405 1.5625 7.03125V38.2812C1.5625 38.6957 1.72712 39.0931 2.02015 39.3861C2.31317 39.6791 2.7106 39.8438 3.125 39.8438H6.32031C6.50393 40.9355 7.0685 41.9269 7.91379 42.6419C8.75907 43.3569 9.83038 43.7493 10.9375 43.7493C12.0446 43.7493 13.1159 43.3569 13.9612 42.6419C14.8065 41.9269 15.3711 40.9355 15.5547 39.8438H33.6641C33.8477 40.9355 34.4123 41.9269 35.2575 42.6419C36.1028 43.3569 37.1741 43.7493 38.2812 43.7493C39.3884 43.7493 40.4597 43.3569 41.305 42.6419C42.1502 41.9269 42.7148 40.9355 42.8984 39.8438H46.0938C46.7154 39.8438 47.3115 39.5968 47.751 39.1573C48.1906 38.7177 48.4375 38.1216 48.4375 37.5V27.4281C48.439 26.7318 48.2528 26.0479 47.8984 25.4484ZM42.7242 19.1594L46.3023 25.7812H34.375V18.75H42.0375C42.1782 18.7501 42.3163 18.7881 42.4372 18.8602C42.5581 18.9322 42.6572 19.0356 42.7242 19.1594ZM32.0312 9.375C34.174 9.37784 36.2385 10.1803 37.8206 11.6253C39.4027 13.0703 40.3886 15.0538 40.5852 17.1875H31.25V9.375H32.0312ZM3.125 7.8125H29.6875V31.25H3.125V7.8125ZM10.9375 42.1875C10.3194 42.1875 9.71525 42.0042 9.20134 41.6608C8.68744 41.3175 8.2869 40.8294 8.05038 40.2584C7.81385 39.6874 7.75197 39.059 7.87255 38.4528C7.99312 37.8467 8.29075 37.2898 8.72779 36.8528C9.16483 36.4158 9.72165 36.1181 10.3278 35.9975C10.934 35.877 11.5624 35.9389 12.1334 36.1754C12.7044 36.4119 13.1925 36.8124 13.5358 37.3263C13.8792 37.8402 14.0625 38.4444 14.0625 39.0625C14.0625 39.8913 13.7333 40.6862 13.1472 41.2722C12.5612 41.8583 11.7663 42.1875 10.9375 42.1875ZM10.9375 34.375C9.83082 34.3771 8.76048 34.7702 7.9156 35.485C7.07072 36.1998 6.50568 37.1902 6.32031 38.2812H3.125V32.8125H29.6875V38.2812H15.5547C15.3693 37.1902 14.8043 36.1998 13.9594 35.485C13.1145 34.7702 12.0442 34.3771 10.9375 34.375ZM38.2812 42.1875C37.6632 42.1875 37.059 42.0042 36.5451 41.6608C36.0312 41.3175 35.6306 40.8294 35.3941 40.2584C35.1576 39.6874 35.0957 39.059 35.2163 38.4528C35.3369 37.8467 35.6345 37.2898 36.0715 36.8528C36.5086 36.4158 37.0654 36.1181 37.6716 35.9975C38.2778 35.877 38.9061 35.9389 39.4771 36.1754C40.0482 36.4119 40.5362 36.8124 40.8796 37.3263C41.223 37.8402 41.4062 38.4444 41.4062 39.0625C41.4062 39.8913 41.077 40.6862 40.491 41.2722C39.9049 41.8583 39.1101 42.1875 38.2812 42.1875ZM46.0938 38.2812H42.8984C42.7148 37.1895 42.1502 36.1981 41.305 35.4831C40.4597 34.7681 39.3884 34.3757 38.2812 34.3757C37.1741 34.3757 36.1028 34.7681 35.2575 35.4831C34.4123 36.1981 33.8477 37.1895 33.6641 38.2812H31.25V18.75H32.8125V26.5625C32.8125 26.7697 32.8948 26.9684 33.0413 27.1149C33.1878 27.2614 33.3865 27.3438 33.5938 27.3438H46.8633C46.8633 27.3727 46.875 27.4 46.875 27.4281V28.9062H43.75C43.3356 28.9062 42.9382 29.0709 42.6451 29.3639C42.3521 29.6569 42.1875 30.0543 42.1875 30.4688V32.0312C42.1875 32.4457 42.3521 32.8431 42.6451 33.1361C42.9382 33.4291 43.3356 33.5938 43.75 33.5938H46.875V35.1562H44.5312V36.7188H46.875V37.5C46.875 37.7072 46.7927 37.9059 46.6462 38.0524C46.4997 38.1989 46.3009 38.2812 46.0938 38.2812ZM46.875 30.4688V32.0312H43.75V30.4688H46.875Z" fill="#E23535"/>
</svg>
