<svg width="50" height="50" viewBox="0 0 50 50" fill="none" xmlns="http://www.w3.org/2000/svg">
<path d="M25 21.6667C28.2166 21.6667 30.8333 19.0492 30.8333 15.8333C30.8333 12.6175 28.2166 10 25 10C21.7833 10 19.1666 12.6175 19.1666 15.8333C19.1666 19.0492 21.7833 21.6667 25 21.6667ZM25 11.6667C27.2975 11.6667 29.1666 13.5358 29.1666 15.8333C29.1666 18.1308 27.2975 20 25 20C22.7025 20 20.8333 18.1308 20.8333 15.8333C20.8333 13.5358 22.7025 11.6667 25 11.6667Z" fill="#222222"/>
<path d="M24.8524 45.6308L37.6366 27.1667C42.4316 20.7742 41.7383 10.2667 36.1524 4.68167C33.1341 1.6625 29.1208 0 24.8524 0C20.5841 0 16.5708 1.6625 13.5524 4.68083C7.96661 10.2658 7.27328 20.7733 12.0491 27.1408L24.8524 45.6308ZM14.7308 5.85917C17.4349 3.15583 21.0291 1.66667 24.8524 1.66667C28.6758 1.66667 32.2699 3.15583 34.9741 5.85917C40.0158 10.9 40.6366 20.39 36.2849 26.1917L24.8524 42.7025L13.4016 26.1667C9.06828 20.39 9.68995 10.9 14.7308 5.85917Z" fill="#222222"/>
<path d="M35.0975 35.8391C34.6392 35.7833 34.2258 36.1116 34.1725 36.5691C34.1192 37.0266 34.4458 37.4408 34.9025 37.4941C43.6658 38.5258 48.3333 41.3058 48.3333 42.9166C48.3333 45.1783 39.4567 48.3333 25 48.3333C10.5433 48.3333 1.66667 45.1783 1.66667 42.9166C1.66667 41.3058 6.33417 38.5258 15.0975 37.4941C15.5542 37.4408 15.8808 37.0258 15.8275 36.5691C15.7733 36.1116 15.36 35.7816 14.9025 35.8391C6.12833 36.8725 0 39.7825 0 42.9166C0 46.4366 8.5875 49.9999 25 49.9999C41.4125 49.9999 50 46.4366 50 42.9166C50 39.7825 43.8717 36.8725 35.0975 35.8391Z" fill="#222222"/>
</svg>
