<svg width="50" height="50" viewBox="0 0 50 50" fill="none" xmlns="http://www.w3.org/2000/svg">
<path d="M35.4958 0H14.5042C12.4808 0 10.8333 1.6475 10.8333 3.67083V46.3283C10.8333 48.3525 12.4808 50 14.5042 50H35.495C37.5192 50 39.1667 48.3525 39.1667 46.3292V3.67083C39.1667 1.6475 37.5192 0 35.4958 0ZM12.5 6.66667H37.5V38.3333H12.5V6.66667ZM14.5042 1.66667H35.495C36.6008 1.66667 37.5 2.56583 37.5 3.67083V5H12.5V3.67083C12.5 2.56583 13.3992 1.66667 14.5042 1.66667ZM35.4958 48.3333H14.5042C13.3992 48.3333 12.5 47.4342 12.5 46.3292V40H37.5V46.3292C37.5 47.4342 36.6008 48.3333 35.4958 48.3333Z" fill="#222222"/>
<path d="M25 40.8333C23.1617 40.8333 21.6667 42.3283 21.6667 44.1667C21.6667 46.005 23.1617 47.5 25 47.5C26.8383 47.5 28.3333 46.005 28.3333 44.1667C28.3333 42.3283 26.8383 40.8333 25 40.8333ZM25 45.8333C24.0808 45.8333 23.3333 45.0858 23.3333 44.1667C23.3333 43.2475 24.0808 42.5 25 42.5C25.9192 42.5 26.6667 43.2475 26.6667 44.1667C26.6667 45.0858 25.9192 45.8333 25 45.8333Z" fill="#222222"/>
<path d="M21.6667 4.16667H25C25.4608 4.16667 25.8333 3.79417 25.8333 3.33333C25.8333 2.8725 25.4608 2.5 25 2.5H21.6667C21.2058 2.5 20.8333 2.8725 20.8333 3.33333C20.8333 3.79417 21.2058 4.16667 21.6667 4.16667Z" fill="#222222"/>
<path d="M27.5 4.16667H28.3334C28.7942 4.16667 29.1667 3.79417 29.1667 3.33333C29.1667 2.8725 28.7942 2.5 28.3334 2.5H27.5C27.0392 2.5 26.6667 2.8725 26.6667 3.33333C26.6667 3.79417 27.0392 4.16667 27.5 4.16667Z" fill="#222222"/>
<path d="M47.1767 3.80752C46.8508 3.48168 46.3242 3.48168 45.9983 3.80752C45.6725 4.13335 45.6725 4.66002 45.9983 4.98585C49.1117 8.09918 49.1117 13.165 45.9983 16.2792C45.6725 16.605 45.6725 17.1317 45.9983 17.4575C46.1608 17.62 46.3742 17.7017 46.5875 17.7017C46.8008 17.7017 47.0142 17.62 47.1767 17.4575C50.94 13.695 50.94 7.57085 47.1767 3.80752Z" fill="#222222"/>
<path d="M43.6675 5.70415C43.3417 5.37832 42.815 5.37832 42.4892 5.70415C42.1633 6.02999 42.1633 6.55665 42.4892 6.88249C43.52 7.91332 44.0875 9.28665 44.0875 10.7483C44.0875 12.21 43.52 13.5825 42.4892 14.6133C42.1633 14.9392 42.1633 15.4658 42.4892 15.7917C42.6517 15.9542 42.865 16.0358 43.0783 16.0358C43.2917 16.0358 43.505 15.9542 43.6675 15.7917C45.0133 14.4467 45.7542 12.655 45.7542 10.7483C45.7542 8.84165 45.0142 7.04915 43.6675 5.70415Z" fill="#222222"/>
<path d="M4.00166 4.98585C4.32749 4.66002 4.32749 4.13335 4.00166 3.80752C3.67582 3.48168 3.14916 3.48168 2.82332 3.80752C-0.940009 7.57085 -0.940009 13.6942 2.82332 17.4575C2.98582 17.62 3.19916 17.7017 3.41249 17.7017C3.62582 17.7017 3.83916 17.62 4.00166 17.4575C4.32749 17.1317 4.32749 16.605 4.00166 16.2792C0.88749 13.1658 0.88749 8.10002 4.00166 4.98585Z" fill="#222222"/>
<path d="M7.51085 5.47417C7.18502 5.14834 6.65835 5.14834 6.33252 5.47417C4.98668 6.81917 4.24585 8.61084 4.24585 10.5175C4.24585 12.4242 4.98668 14.2158 6.33252 15.5617C6.49502 15.7242 6.70835 15.8058 6.92168 15.8058C7.13502 15.8058 7.34835 15.7242 7.51085 15.5617C7.83668 15.2358 7.83668 14.7092 7.51085 14.3833C6.48002 13.3525 5.91252 11.9792 5.91252 10.5175C5.91252 9.05584 6.47918 7.68334 7.51085 6.65251C7.83585 6.32751 7.83585 5.80001 7.51085 5.47417Z" fill="#222222"/>
</svg>
