<svg width="50" height="50" viewBox="0 0 50 50" fill="none" xmlns="http://www.w3.org/2000/svg">
<path d="M40.4822 34.6802C40.2839 34.6802 40.0855 34.6076 39.9308 34.4609L30.6537 25.7578C30.3296 25.4547 30.3135 24.9436 30.6182 24.6195C30.923 24.2923 31.4308 24.2777 31.7581 24.5841L41.0352 33.2872C41.3592 33.5903 41.3754 34.1014 41.0706 34.4254C40.911 34.5947 40.6982 34.6802 40.4822 34.6802Z" fill="#222222"/>
<path d="M9.51543 34.6805C9.301 34.6805 9.08657 34.595 8.92695 34.4258C8.62223 34.1017 8.63836 33.5906 8.96242 33.2875L18.2427 24.5844C18.5684 24.2813 19.0795 24.2942 19.3826 24.6199C19.6873 24.9439 19.6712 25.455 19.3471 25.7581L10.0668 34.4612C9.91205 34.6079 9.71374 34.6805 9.51543 34.6805Z" fill="#222222"/>
<path d="M45.9693 42.7722H4.0307C1.80898 42.7722 0 40.9648 0 38.7415V11.257C0 9.03365 1.80898 7.22629 4.0307 7.22629H45.9693C48.191 7.22629 50 9.03365 50 11.257V38.7415C50 40.9648 48.191 42.7722 45.9693 42.7722ZM4.0307 8.83857C2.69734 8.83857 1.61228 9.92363 1.61228 11.257V38.7415C1.61228 40.0749 2.69734 41.1599 4.0307 41.1599H45.9693C47.3027 41.1599 48.3877 40.0749 48.3877 38.7415V11.257C48.3877 9.92363 47.3027 8.83857 45.9693 8.83857H4.0307Z" fill="#222222"/>
<path d="M24.9999 29.0501C23.9277 29.0501 22.8555 28.6937 22.0397 27.9827L1.33805 9.92359C1.0027 9.63177 0.967225 9.12229 1.25905 8.78532C1.5541 8.44997 2.06196 8.41934 2.39732 8.70793L23.099 26.7655C24.1292 27.6635 25.8705 27.6635 26.8991 26.7655L47.575 8.73696C47.9087 8.44513 48.4166 8.47738 48.7133 8.81434C49.0051 9.15131 48.9712 9.65918 48.6359 9.95261L27.96 27.9811C27.1426 28.6937 26.072 29.0501 24.9999 29.0501Z" fill="#222222"/>
</svg>
