<svg width="103" height="40" viewBox="0 0 103 40" fill="none" xmlns="http://www.w3.org/2000/svg">
<g clip-path="url(#clip0)">
<path d="M13.3412 34.1637L3.44291 33.0249H3.37119C2.0801 32.7402 1.07592 31.8149 0.645559 30.5338C0.502105 30.0356 0.286924 29.1815 0.14347 27.9715C-0.0717107 26.548 0.286924 25.1246 1.07592 23.9858L1.72146 23.0605C2.00837 21.4235 3.87328 12.0285 4.16018 11.032C4.44709 9.96441 5.59472 9.39502 6.16854 9.18149L7.60308 5.12456C8.39208 2.4911 10.1135 0.925267 12.4805 0.854093H12.7674C18.4339 0.498221 28.0453 0 35.6483 0H49.4199C57.5968 0 69.5035 8.25623 73.2333 11.032L75.3851 11.1032C76.1741 11.1744 94.8949 12.8114 98.3378 14.8754C101.279 16.5836 101.422 20.0712 101.279 21.4947C101.709 21.637 102.068 21.9217 102.354 22.2064C102.785 22.7046 103.072 23.4164 103 24.1281L102.57 29.5374C102.426 31.1744 101.279 32.5267 99.6288 32.8826L92.8865 33.879H92.8148H92.3844C92.0258 33.879 91.6671 33.5943 91.6671 33.1673C91.6671 33.0961 91.6671 32.9537 91.7389 32.8826C91.954 31.8861 91.954 30.8897 91.8106 29.8932C91.2368 25.7651 87.7939 22.4199 83.6337 21.9929C83.2751 21.9929 82.9882 21.9217 82.6295 21.9217C77.5369 21.9217 73.3768 26.0498 73.3768 31.1032C73.3768 31.8149 73.4485 32.4555 73.5919 33.1673C73.6637 33.3808 73.5919 33.5943 73.4485 33.7367C73.305 33.879 73.0898 34.0214 72.8747 34.0214H32.9227C32.4924 34.0214 32.2054 33.7367 32.2054 33.3096C32.2054 33.2384 32.2054 33.0961 32.2772 33.0249C32.4206 32.3132 32.4924 31.6014 32.4924 30.9609C32.4924 25.9075 28.3322 21.7794 23.2396 21.7794C18.147 21.7794 13.9868 25.9075 13.9868 30.9609C13.9868 31.6726 14.0585 32.3843 14.2737 33.1673C14.3454 33.3808 14.2737 33.5943 14.1302 33.8078C13.9868 33.9502 13.7716 34.0925 13.5564 34.0925H13.413C13.413 34.1637 13.413 34.1637 13.3412 34.1637ZM83.7054 20.6406C88.5111 21.1388 92.5279 24.9822 93.1734 29.7509C93.3169 30.6762 93.3169 31.5302 93.1734 32.4555L99.2702 31.5302C100.274 31.3167 100.992 30.4626 101.063 29.4662L101.494 24.0569C101.494 23.7722 101.422 23.4164 101.207 23.2028C100.992 22.9893 100.705 22.847 100.346 22.7758C100.131 22.7758 99.9875 22.6335 99.844 22.4911C99.7006 22.3488 99.7006 22.1352 99.7006 21.9217C99.7006 21.8505 100.418 17.7224 97.5488 16.0854C94.8949 14.5196 80.4777 13.0249 75.2417 12.5267L72.9464 12.4555C72.8029 12.4555 72.6595 12.3843 72.516 12.3132C70.0773 10.5338 57.4534 1.42349 49.4199 1.42349H35.6483C28.0453 1.42349 18.4339 1.92171 12.6957 2.20641H12.4088C10.6873 2.27758 9.39626 3.41637 8.82244 5.48043L7.31617 9.89324C7.24444 10.1068 7.10099 10.2491 6.88581 10.3203C6.5989 10.3915 5.66645 10.8185 5.523 11.3879C5.30782 12.0996 3.945 18.9324 3.08428 23.4164C3.08428 23.4875 3.01255 23.6299 2.94082 23.7011L2.22355 24.7687C1.64974 25.6228 1.36283 26.6904 1.50628 27.758C1.72146 29.1815 1.86492 29.8221 1.93665 30.1068C2.22355 30.8897 2.79737 31.4591 3.58637 31.6726L12.624 32.7402C12.5522 32.242 12.4805 31.6726 12.4805 31.1744C12.4805 25.3381 17.2862 20.5694 23.1678 20.5694C29.0495 20.5694 33.8552 25.3381 33.8552 31.1744C33.8552 31.7438 33.7834 32.242 33.7117 32.8114H71.9422C71.8705 32.3132 71.7988 31.7438 71.7988 31.2456C71.7988 25.4093 76.6045 20.6406 82.4861 20.6406C82.9882 20.5694 83.3468 20.5694 83.7054 20.6406ZM94.6079 20.427C92.8148 19.1459 91.954 17.5089 92.6713 16.5125C93.3886 15.516 95.3252 15.7295 97.0467 16.9395C98.8398 18.2206 99.7006 19.8577 98.9833 20.8541C98.6964 21.2811 98.1943 21.4947 97.5488 21.4947C96.688 21.4947 95.6121 21.1388 94.6079 20.427ZM97.8357 20.0712C97.9074 19.8577 97.477 18.9324 96.2577 18.0783C95.3969 17.4377 94.6079 17.2242 94.1776 17.2242C93.9624 17.2242 93.8907 17.2954 93.8907 17.2954C93.8189 17.5089 94.2493 18.4342 95.4687 19.2883C96.3294 19.9288 97.1184 20.1423 97.5488 20.1423C97.6922 20.0712 97.7639 20.0712 97.8357 20.0712ZM68.3559 12.3132L49.2765 11.7438L47.6268 11.6726C47.2681 11.6726 46.9095 11.3167 46.9095 10.9609V2.70463C46.9095 2.27758 47.1964 1.99288 47.6268 1.99288H49.4917C55.7319 1.99288 63.5501 7.40214 68.2124 10.6762L68.7862 11.1032C69.0731 11.3167 69.1449 11.6014 69.0731 11.8861C68.9297 12.1708 68.6428 12.3132 68.3559 12.3132ZM48.4158 3.41637V10.3203L65.9889 10.8185C61.3983 7.68683 54.7277 3.41637 49.4917 3.41637H48.4158ZM45.4032 11.6014L25.1045 11.032C24.8893 11.032 24.6741 10.8897 24.5307 10.6762C24.3872 10.4626 24.3872 10.2491 24.4589 10.0356L27.6149 2.63345C27.7584 2.34875 27.9736 2.20641 28.2605 2.20641L45.4032 1.99288C45.6184 1.99288 45.7619 2.06406 45.9053 2.20641C46.0488 2.34875 46.1205 2.4911 46.1205 2.70463V10.8897C46.1205 11.1032 46.0488 11.2456 45.9053 11.3879C45.8336 11.5302 45.6184 11.6014 45.4032 11.6014C45.4749 11.6014 45.4749 11.6014 45.4032 11.6014ZM28.7625 3.62989L26.2521 9.60854L44.7577 10.1779V3.41637L28.7625 3.62989ZM22.8092 10.8897L8.96589 10.7473C8.75071 10.7473 8.53553 10.605 8.39208 10.4626C8.24862 10.2491 8.24862 10.0356 8.32035 9.82206L10.0418 5.2669C10.6156 3.98577 11.9067 3.13167 13.3412 2.98932L25.9652 2.27758C26.2521 2.27758 26.4673 2.34875 26.6107 2.56228C26.7542 2.7758 26.7542 2.98932 26.6825 3.27402L23.5982 10.4626C23.3113 10.7473 23.0961 10.8897 22.8092 10.8897ZM13.3412 4.41281C12.4805 4.48399 11.6915 4.98221 11.3329 5.76512L10.0418 9.32384L22.3788 9.46619L24.8176 3.77224L13.3412 4.41281Z" fill="#222222"/>
<path d="M74.0223 31.4591C74.0223 26.7616 77.8239 22.9893 82.5579 22.9893C87.2918 22.9893 91.0934 26.7616 91.0934 31.4591C91.0934 36.1566 87.2918 39.9288 82.5579 39.9288C77.8956 39.9288 74.0223 36.1566 74.0223 31.4591ZM75.4569 31.4591C75.4569 35.3737 78.6129 38.5053 82.5579 38.5053C86.5028 38.5053 89.6588 35.3737 89.6588 31.4591C89.6588 27.5445 86.5028 24.4128 82.5579 24.4128C78.6846 24.4128 75.4569 27.6157 75.4569 31.4591ZM76.748 31.5302C76.748 28.3986 79.3301 25.8363 82.4861 25.8363C85.6421 25.8363 88.2243 28.3986 88.2243 31.5302C88.2243 34.6619 85.6421 37.2242 82.4861 37.2242C79.4019 37.2242 76.748 34.6619 76.748 31.5302ZM78.1825 31.5302C78.1825 33.879 80.1191 35.8007 82.4861 35.8007C84.8531 35.8007 86.7897 33.879 86.7897 31.5302C86.7897 29.1815 84.8531 27.2598 82.4861 27.2598C80.1909 27.1886 78.1825 29.1815 78.1825 31.5302Z" fill="#222222"/>
<path d="M14.6323 31.5302C14.6323 26.8327 18.4339 23.0605 23.1678 23.0605C27.9018 23.0605 31.7034 26.8327 31.7034 31.5302C31.7034 36.2277 27.9018 40 23.1678 40C18.5056 40 14.6323 36.2277 14.6323 31.5302ZM16.0669 31.5302C16.0669 35.4448 19.2229 38.5765 23.1678 38.5765C27.1128 38.5765 30.2688 35.4448 30.2688 31.5302C30.2688 27.6156 27.1128 24.484 23.1678 24.484C19.2946 24.484 16.0669 27.6156 16.0669 31.5302ZM17.358 31.6014C17.358 28.4697 19.9401 25.9075 23.0961 25.9075C26.2521 25.9075 28.8343 28.4697 28.8343 31.6014C28.8343 34.7331 26.2521 37.2954 23.0961 37.2954C19.9401 37.2954 17.358 34.7331 17.358 31.6014ZM18.7925 31.6014C18.7925 33.9502 20.7291 35.8719 23.0961 35.8719C25.4631 35.8719 27.3997 33.9502 27.3997 31.6014C27.3997 29.2527 25.4631 27.3309 23.0961 27.3309C20.7291 27.2598 18.7925 29.1815 18.7925 31.6014Z" fill="#222222"/>
<path d="M53.7953 16.9395C54.1539 16.9395 54.5126 16.6548 54.5126 16.2277C54.5126 15.8007 54.2257 15.516 53.7953 15.516L49.9938 15.3737C49.5634 15.3737 49.2765 15.6584 49.2765 16.0854C49.2765 16.5124 49.5634 16.7971 49.9938 16.7971L53.7953 16.9395Z" fill="#222222"/>
<path d="M33.9269 16.2989C34.2855 16.2989 34.6441 16.0142 34.6441 15.5872C34.6441 15.1601 34.3572 14.8754 33.9269 14.8754L30.1254 14.7331C29.695 14.7331 29.4081 15.0178 29.4081 15.4448C29.4081 15.8719 29.695 16.1566 30.1254 16.1566L33.9269 16.2989Z" fill="#222222"/>
</g>
<defs>
<clipPath id="clip0">
<rect width="103" height="40" fill="white"/>
</clipPath>
</defs>
</svg>
