<svg width="87" height="40" viewBox="0 0 87 40" fill="none" xmlns="http://www.w3.org/2000/svg">
<g clip-path="url(#clip0)">
<path d="M58.4244 31.5603C58.4244 36.2412 62.1732 40 66.8415 40C71.5097 40 75.2585 36.2412 75.2585 31.5603C75.2585 26.8795 71.5097 23.1206 66.8415 23.1206C62.1732 23.1206 58.4244 26.8795 58.4244 31.5603ZM62.5268 31.5603C62.5268 29.2199 64.4366 27.305 66.7707 27.305C69.1049 27.305 71.0146 29.2199 71.0146 31.5603C71.0146 33.9007 69.1049 35.8156 66.7707 35.8156C64.4366 35.8866 62.5268 33.9717 62.5268 31.5603Z" fill="#EF3939"/>
<path d="M5.30487 31.5603C5.30487 36.2412 9.05365 40 13.7219 40C18.3902 40 22.139 36.2412 22.139 31.5603C22.139 26.8795 18.3902 23.1206 13.7219 23.1206C9.05365 23.1206 5.30487 26.9504 5.30487 31.5603ZM9.40731 31.6312C9.40731 29.2908 11.3171 27.3759 13.6512 27.3759C15.9854 27.3759 17.8951 29.2908 17.8951 31.6312C17.8951 33.9717 15.9854 35.8866 13.6512 35.8866C11.3171 35.9575 9.40731 33.9717 9.40731 31.6312Z" fill="#EF3939"/>
<path d="M0 27.9433C0 33.9007 4.03171 34.2553 4.10244 34.2553C4.10244 34.2553 4.10244 34.2553 4.17317 34.2553H4.2439C4.4561 34.2553 4.66829 34.1844 4.80976 33.9716C4.95122 33.7589 4.95122 33.5461 4.95122 33.3333C4.73902 32.6241 4.66829 31.844 4.66829 31.1348C4.66829 26.0993 8.77073 21.9858 13.7927 21.9858C18.8146 21.9858 22.9171 26.0993 22.9171 31.1348C22.9171 31.773 22.8463 32.4823 22.7049 33.1915C22.6341 33.2624 22.6341 33.4043 22.6341 33.4752C22.6341 33.9007 22.9171 34.1844 23.3415 34.1844H57.2927C57.5049 34.1844 57.7171 34.1135 57.8585 33.9007C58 33.7589 58 33.5461 58 33.3333C57.8585 32.6241 57.7878 31.9149 57.7878 31.2766C57.7878 26.2411 61.8902 22.1277 66.9122 22.1277C67.2659 22.1277 67.5488 22.1277 67.9024 22.1986C72.0049 22.6241 75.4 25.8865 75.9659 30.0709C76.1073 31.0638 76.1073 32.0567 75.8951 33.0496C75.8951 33.1206 75.8244 33.1915 75.8244 33.3333C75.8244 33.7589 76.1073 34.0425 76.5317 34.0425H76.9561H77.0268L83.6756 33.0496C85.3024 32.695 86.5049 31.3475 86.5756 29.7163L87 24.3262C87.0707 23.617 86.8585 22.9787 86.3634 22.4113C86.0805 22.0567 85.7268 21.844 85.3024 21.7021C85.4439 20.2128 85.3024 16.8085 82.4024 15.1064C79.0073 13.1206 63.4463 11.4184 62.8098 11.4184L60.6878 11.3475C48.3805 1.91489 41.2366 0 37.4878 0H11.4585C9.76098 0 8.20488 1.34752 7.63902 2.62411C7.63902 2.62411 7.63902 2.69504 7.56829 2.69504L2.19268 20.4255L0.42439 22.9078C0.353659 22.9787 0.282927 23.1206 0.282927 23.2624C0.282927 23.4043 0 25.8156 0 27.9433ZM76.8146 16.5957C77.522 15.6028 79.4317 15.8156 81.1293 17.0213C82.8976 18.2979 83.7463 19.9291 83.039 20.922C82.7561 21.3475 82.261 21.5603 81.6244 21.5603C80.7756 21.5603 79.7146 21.1348 78.7244 20.4965C76.8854 19.2908 76.1073 17.5887 76.8146 16.5957ZM34.022 16.1702C34.022 15.7447 34.3756 15.461 34.7293 15.461L38.4781 15.6028C38.9024 15.6028 39.1854 15.9574 39.1854 16.3121C39.1854 16.6667 38.8317 17.0213 38.4781 17.0213L34.7293 16.8794C34.3049 16.9504 34.022 16.5957 34.022 16.1702ZM29.9195 2.83688C29.9195 2.41135 30.2024 2.12766 30.6268 2.12766H37.2756C43.4293 2.12766 51.139 7.51773 55.7366 10.7801L56.3024 11.2057C56.5854 11.4184 56.6561 11.7021 56.5854 11.9858C56.5146 12.2695 56.2317 12.4823 55.9488 12.4823L37.2049 11.9149L30.7683 11.844C30.4146 11.844 30.061 11.4894 30.061 11.1348V2.83688H29.9195ZM8.48781 10.1418L10.822 2.62411C10.8927 2.34043 11.1756 2.12766 11.5293 2.12766H28.4341C28.8585 2.12766 29.1415 2.41135 29.1415 2.83688V10.9929C29.1415 11.2057 29.0707 11.3475 28.9293 11.4894C28.7878 11.6312 28.6463 11.7021 28.4341 11.7021L9.19512 11.0638C8.98293 11.0638 8.77073 10.922 8.62927 10.7801C8.48781 10.5674 8.41707 10.3546 8.48781 10.1418Z" fill="#EF3939"/>
</g>
<defs>
<clipPath id="clip0">
<rect width="87" height="40" fill="white"/>
</clipPath>
</defs>
</svg>
