<svg width="87" height="40" viewBox="0 0 87 40" fill="none" xmlns="http://www.w3.org/2000/svg">
<path d="M4.10244 34.1844C4.03171 34.1844 0 33.8298 0 27.8723C0 25.7447 0.282927 23.3333 0.282927 23.2624C0.282927 23.1206 0.353659 23.0496 0.42439 22.9078L2.19268 20.4255L7.56829 2.69504C7.56829 2.69504 7.56829 2.62411 7.63902 2.62411C8.27561 1.34752 9.76098 0 11.4585 0L37.4878 0C41.3073 0 48.3805 1.91489 60.6171 11.2057L62.739 11.2766C63.3756 11.3475 78.9366 12.9787 82.3317 14.9645C85.2317 16.6667 85.3732 20.1418 85.2317 21.5603C85.6561 21.7021 86.0098 21.9858 86.2927 22.2695C86.7878 22.766 87 23.4752 86.9293 24.1844L86.5049 29.5745C86.3634 31.2057 85.2317 32.5532 83.6049 32.9078L76.9561 33.9007H76.8854H76.461C76.0366 33.9007 75.7537 33.617 75.7537 33.1915C75.7537 33.1206 75.7537 32.9787 75.8244 32.9078C76.0366 31.9149 76.0366 30.922 75.8951 29.9291C75.3293 25.8156 71.9342 22.4823 67.8317 22.0567C67.4781 22.0567 67.1951 21.9858 66.8415 21.9858C61.8195 21.9858 57.7171 26.0993 57.7171 31.1348C57.7171 31.844 57.7878 32.4823 57.9293 33.1915C58 33.4043 57.9293 33.617 57.7878 33.7589C57.6463 33.9007 57.4342 34.0425 57.222 34.0425H23.2707C22.8463 34.0425 22.5634 33.7589 22.5634 33.3333C22.5634 33.2624 22.5634 33.1206 22.6341 33.0496C22.7756 32.3404 22.8463 31.6312 22.8463 30.9929C22.8463 25.9574 18.7439 21.844 13.722 21.844C8.7 21.844 4.59756 25.9574 4.59756 30.9929C4.59756 31.7021 4.66829 32.4113 4.88049 33.1915C4.95122 33.4043 4.88049 33.617 4.73902 33.8298C4.59756 33.9716 4.38537 34.1135 4.17317 34.1135L4.10244 34.1844ZM67.9732 20.7092C72.7122 21.2057 76.6732 25.0355 77.3098 29.7872C77.4512 30.7092 77.4512 31.5603 77.3098 32.4823L83.322 31.5603C84.3122 31.3475 85.0195 30.4965 85.0902 29.5035L85.5146 24.1135C85.5146 23.8298 85.4439 23.4752 85.2317 23.2624C85.0195 23.0496 84.7366 22.9078 84.3829 22.8369C84.1707 22.8369 84.0293 22.695 83.8878 22.5532C83.7463 22.4113 83.7463 22.1986 83.7463 21.9858C83.7463 21.9149 84.4537 17.8014 81.6244 16.1702C79.0073 14.6099 66.9829 13.1206 62.6683 12.6241L60.4049 12.5532C60.2634 12.5532 60.122 12.4823 59.9805 12.4113L59.7683 12.2695C47.8146 3.33333 41.0244 1.41844 37.4878 1.41844H11.4585C10.539 1.41844 9.40732 2.19858 8.9122 3.19149L3.53659 20.9929C3.53659 21.0638 3.46585 21.1348 3.46585 21.2057L1.69756 23.6879C1.62683 24.2553 1.41463 26.2411 1.41463 27.9433C1.41463 30.922 2.54634 32.0567 3.32439 32.5532C3.25366 32.1277 3.25366 31.6312 3.25366 31.2057C3.25366 25.3901 7.99268 20.6383 13.7927 20.6383C19.5927 20.6383 24.3317 25.3901 24.3317 31.2057C24.3317 31.773 24.261 32.2695 24.1902 32.8369H56.4439C56.3732 32.3404 56.3024 31.773 56.3024 31.2766C56.3024 25.461 61.0415 20.7092 66.8415 20.7092C67.1951 20.7092 67.6195 20.7092 67.9732 20.7092ZM78.6537 20.5674C76.8854 19.2908 76.0366 17.6596 76.7439 16.6667C77.4512 15.6738 79.361 15.8865 81.0585 17.0922C82.8268 18.3688 83.6756 20 82.9683 20.9929C82.6854 21.4184 82.1903 21.6312 81.5537 21.6312C80.7049 21.6312 79.6439 21.2057 78.6537 20.5674ZM81.8366 20.1418C81.9073 19.9291 81.4829 19.0071 80.2805 18.156C79.4317 17.5177 78.6537 17.305 78.2293 17.305C78.0171 17.305 77.9463 17.3759 77.9463 17.3759C77.8756 17.5887 78.3 18.5106 79.5024 19.3617C80.3512 20 81.1293 20.2128 81.5537 20.2128C81.7659 20.2128 81.8366 20.1418 81.8366 20.1418ZM55.8073 12.4823L37.0634 11.9149L30.6268 11.844C30.2732 11.844 29.9195 11.4894 29.9195 11.1348V2.83688C29.9195 2.41135 30.2024 2.12766 30.6268 2.12766H37.2756C43.4293 2.12766 51.139 7.51773 55.7366 10.7801L56.3024 11.2057C56.5854 11.4184 56.6561 11.7021 56.5854 11.9858C56.4439 12.2695 56.161 12.4823 55.8073 12.4823C55.8781 12.4823 55.8073 12.4823 55.8073 12.4823ZM31.3341 3.5461V10.3546L37.1341 10.4255L53.5439 10.922C49.0171 7.87234 42.439 3.5461 37.2756 3.5461H31.3341ZM28.3634 11.7021L9.12439 11.0638C8.9122 11.0638 8.7 10.922 8.55854 10.7801C8.41707 10.5674 8.41707 10.3546 8.48781 10.1418L10.822 2.62411C10.8927 2.34043 11.1756 2.12766 11.5293 2.12766H28.4341C28.8585 2.12766 29.1415 2.41135 29.1415 2.83688V10.9929C29.1415 11.2057 29.0707 11.3475 28.9293 11.4894C28.7878 11.6312 28.5756 11.7021 28.3634 11.7021ZM12.0244 3.5461L10.1854 9.64539L27.7976 10.2837V3.5461H12.0244Z" fill="#E23535"/>
<path d="M58.4243 31.5603C58.4243 26.8794 62.1731 23.1205 66.8414 23.1205C71.5097 23.1205 75.2585 26.8794 75.2585 31.5603C75.2585 36.2411 71.5097 40 66.8414 40C62.1731 40 58.4243 36.1702 58.4243 31.5603ZM59.839 31.5603C59.839 35.461 62.9511 38.5815 66.8414 38.5815C70.7316 38.5815 73.8438 35.461 73.8438 31.5603C73.8438 27.6596 70.7316 24.539 66.8414 24.539C62.9511 24.539 59.839 27.6596 59.839 31.5603ZM61.1121 31.5603C61.1121 28.4397 63.6585 25.8865 66.7707 25.8865C69.8829 25.8865 72.4292 28.4397 72.4292 31.5603C72.4292 34.6808 69.8829 37.234 66.7707 37.234C63.6585 37.3049 61.1121 34.7517 61.1121 31.5603ZM62.5268 31.5603C62.5268 33.9007 64.4365 35.8156 66.7707 35.8156C69.1048 35.8156 71.0146 33.9007 71.0146 31.5603C71.0146 29.2198 69.1048 27.3049 66.7707 27.3049C64.4365 27.3049 62.5268 29.2198 62.5268 31.5603Z" fill="#E23535"/>
<path d="M5.30469 31.5603C5.30469 26.8794 9.05347 23.1205 13.7218 23.1205C18.3901 23.1205 22.1388 26.9503 22.1388 31.5603C22.1388 36.1702 18.3901 40 13.7218 40C9.05347 40 5.30469 36.2411 5.30469 31.5603ZM6.71932 31.5603C6.71932 35.461 9.83152 38.5815 13.7218 38.5815C17.612 38.5815 20.7242 35.461 20.7242 31.5603C20.7242 27.6596 17.612 24.539 13.7218 24.539C9.83152 24.539 6.71932 27.7305 6.71932 31.5603ZM7.99249 31.6312C7.99249 28.5106 10.5388 25.9574 13.651 25.9574C16.7632 25.9574 19.3096 28.5106 19.3096 31.6312C19.3096 34.7517 16.7632 37.3049 13.651 37.3049C10.5388 37.3759 7.99249 34.7517 7.99249 31.6312ZM9.40713 31.6312C9.40713 33.9716 11.3169 35.8865 13.651 35.8865C15.9852 35.8865 17.8949 33.9716 17.8949 31.6312C17.8949 29.2908 15.9852 27.3759 13.651 27.3759C11.3169 27.3759 9.40713 29.2908 9.40713 31.6312Z" fill="#E23535"/>
<path d="M38.4781 17.0922C38.8317 17.0922 39.1854 16.8085 39.1854 16.383C39.1854 15.9575 38.9025 15.6738 38.4781 15.6738L34.7293 15.5319C34.3049 15.5319 34.022 15.8156 34.022 16.2411C34.022 16.6667 34.3049 16.9504 34.7293 16.9504L38.4781 17.0922Z" fill="#E23535"/>
</svg>
