<svg width="50" height="50" viewBox="0 0 50 50" fill="none" xmlns="http://www.w3.org/2000/svg">
<path d="M25 21.6667C28.2167 21.6667 30.8334 19.0492 30.8334 15.8333C30.8334 12.6175 28.2167 10 25 10C21.7834 10 19.1667 12.6175 19.1667 15.8333C19.1667 19.0492 21.7834 21.6667 25 21.6667ZM25 11.6667C27.2975 11.6667 29.1667 13.5358 29.1667 15.8333C29.1667 18.1308 27.2975 20 25 20C22.7025 20 20.8334 18.1308 20.8334 15.8333C20.8334 13.5358 22.7025 11.6667 25 11.6667Z" fill="white"/>
<path d="M24.8525 45.6308L37.6367 27.1667C42.4317 20.7742 41.7383 10.2667 36.1525 4.68167C33.1342 1.6625 29.1208 0 24.8525 0C20.5842 0 16.5708 1.6625 13.5525 4.68083C7.96667 10.2658 7.27334 20.7733 12.0492 27.1408L24.8525 45.6308ZM14.7308 5.85917C17.435 3.15583 21.0292 1.66667 24.8525 1.66667C28.6758 1.66667 32.27 3.15583 34.9742 5.85917C40.0158 10.9 40.6367 20.39 36.285 26.1917L24.8525 42.7025L13.4017 26.1667C9.06834 20.39 9.69001 10.9 14.7308 5.85917Z" fill="white"/>
<path d="M35.0975 35.839C34.6392 35.7832 34.2258 36.1115 34.1725 36.569C34.1192 37.0265 34.4458 37.4407 34.9025 37.494C43.6658 38.5257 48.3333 41.3057 48.3333 42.9165C48.3333 45.1782 39.4567 48.3332 25 48.3332C10.5433 48.3332 1.66667 45.1782 1.66667 42.9165C1.66667 41.3057 6.33417 38.5257 15.0975 37.494C15.5542 37.4407 15.8808 37.0257 15.8275 36.569C15.7733 36.1115 15.36 35.7815 14.9025 35.839C6.12833 36.8724 0 39.7824 0 42.9165C0 46.4365 8.5875 49.9999 25 49.9999C41.4125 49.9999 50 46.4365 50 42.9165C50 39.7824 43.8717 36.8724 35.0975 35.839Z" fill="white"/>
</svg>
