<svg width="50" height="50" viewBox="0 0 50 50" fill="none" xmlns="http://www.w3.org/2000/svg">
<path d="M35.4958 0H14.5041C12.4808 0 10.8333 1.6475 10.8333 3.67083V46.3283C10.8333 48.3525 12.4808 50 14.5041 50H35.4949C37.5191 50 39.1666 48.3525 39.1666 46.3292V3.67083C39.1666 1.6475 37.5191 0 35.4958 0ZM12.4999 6.66667H37.4999V38.3333H12.4999V6.66667ZM14.5041 1.66667H35.4949C36.6008 1.66667 37.4999 2.56583 37.4999 3.67083V5H12.4999V3.67083C12.4999 2.56583 13.3991 1.66667 14.5041 1.66667ZM35.4958 48.3333H14.5041C13.3991 48.3333 12.4999 47.4342 12.4999 46.3292V40H37.4999V46.3292C37.4999 47.4342 36.6008 48.3333 35.4958 48.3333Z" fill="white"/>
<path d="M25 40.8335C23.1616 40.8335 21.6666 42.3285 21.6666 44.1668C21.6666 46.0052 23.1616 47.5002 25 47.5002C26.8383 47.5002 28.3333 46.0052 28.3333 44.1668C28.3333 42.3285 26.8383 40.8335 25 40.8335ZM25 45.8335C24.0808 45.8335 23.3333 45.086 23.3333 44.1668C23.3333 43.2477 24.0808 42.5002 25 42.5002C25.9191 42.5002 26.6666 43.2477 26.6666 44.1668C26.6666 45.086 25.9191 45.8335 25 45.8335Z" fill="white"/>
<path d="M21.6666 4.16667H24.9999C25.4608 4.16667 25.8333 3.79417 25.8333 3.33333C25.8333 2.8725 25.4608 2.5 24.9999 2.5H21.6666C21.2058 2.5 20.8333 2.8725 20.8333 3.33333C20.8333 3.79417 21.2058 4.16667 21.6666 4.16667Z" fill="white"/>
<path d="M27.5 4.16667H28.3333C28.7941 4.16667 29.1666 3.79417 29.1666 3.33333C29.1666 2.8725 28.7941 2.5 28.3333 2.5H27.5C27.0391 2.5 26.6666 2.8725 26.6666 3.33333C26.6666 3.79417 27.0391 4.16667 27.5 4.16667Z" fill="white"/>
<path d="M47.1766 3.80736C46.8508 3.48153 46.3241 3.48153 45.9983 3.80736C45.6724 4.1332 45.6724 4.65986 45.9983 4.9857C49.1116 8.09903 49.1116 13.1649 45.9983 16.279C45.6724 16.6049 45.6724 17.1315 45.9983 17.4574C46.1608 17.6199 46.3741 17.7015 46.5874 17.7015C46.8008 17.7015 47.0141 17.6199 47.1766 17.4574C50.9399 13.6949 50.9399 7.5707 47.1766 3.80736Z" fill="white"/>
<path d="M43.6675 5.70434C43.3416 5.3785 42.815 5.3785 42.4891 5.70434C42.1633 6.03017 42.1633 6.55684 42.4891 6.88267C43.52 7.9135 44.0875 9.28684 44.0875 10.7485C44.0875 12.2102 43.52 13.5827 42.4891 14.6135C42.1633 14.9393 42.1633 15.466 42.4891 15.7918C42.6516 15.9543 42.865 16.036 43.0783 16.036C43.2916 16.036 43.505 15.9543 43.6675 15.7918C45.0133 14.4468 45.7541 12.6552 45.7541 10.7485C45.7541 8.84184 45.0141 7.04934 43.6675 5.70434Z" fill="white"/>
<path d="M4.00181 4.9857C4.32764 4.65986 4.32764 4.1332 4.00181 3.80736C3.67598 3.48153 3.14931 3.48153 2.82348 3.80736C-0.939857 7.5707 -0.939857 13.694 2.82348 17.4574C2.98598 17.6199 3.19931 17.7015 3.41264 17.7015C3.62598 17.7015 3.83931 17.6199 4.00181 17.4574C4.32764 17.1315 4.32764 16.6049 4.00181 16.279C0.887643 13.1657 0.887643 8.09986 4.00181 4.9857Z" fill="white"/>
<path d="M7.51085 5.47436C7.18502 5.14852 6.65835 5.14852 6.33252 5.47436C4.98668 6.81936 4.24585 8.61102 4.24585 10.5177C4.24585 12.4244 4.98668 14.216 6.33252 15.5619C6.49502 15.7244 6.70835 15.806 6.92168 15.806C7.13502 15.806 7.34835 15.7244 7.51085 15.5619C7.83668 15.236 7.83668 14.7094 7.51085 14.3835C6.48002 13.3527 5.91252 11.9794 5.91252 10.5177C5.91252 9.05602 6.47918 7.68352 7.51085 6.65269C7.83585 6.32769 7.83585 5.80019 7.51085 5.47436Z" fill="white"/>
</svg>
