<svg width="50" height="50" viewBox="0 0 50 50" fill="none" xmlns="http://www.w3.org/2000/svg">
<path d="M47.5152 42.7418H47.5806V37.9032C47.5806 37.7992 47.5709 35.3241 46.7088 32.7467L44.0797 26.6128H41.9353H39.791L37.1377 32.8095C36.2997 35.3241 36.2901 37.799 36.2901 37.903V39.5159H33.8709C32.537 39.5159 31.4515 38.4304 31.4515 37.0966V33.7377C35.3014 31.5023 37.903 27.3443 37.903 22.5805V22.466C39.29 22.1055 40.3224 20.854 40.3224 19.3548C40.3224 17.9057 39.7764 16.9903 39.4707 16.5903C39.4982 16.4411 39.5159 16.2887 39.5159 16.129V14.516C39.5159 6.51218 33.0039 0 24.9999 0C16.9959 0 10.4839 6.51201 10.4839 14.516V16.129C10.4839 16.2887 10.5017 16.4411 10.5291 16.5903C10.2234 16.9903 9.67741 17.9057 9.67741 19.3548C9.67741 20.854 10.7096 22.1056 12.0968 22.466V22.5805C12.0968 27.3443 14.6984 31.5023 18.5484 33.7377V37.0966C18.5484 38.4304 17.4628 39.5159 16.129 39.5159H12.0966V38.3796C13.6821 37.4183 14.516 35.8699 14.516 33.8707C14.516 31.9079 13.1919 29.6223 10.6612 29.0514L9.67724 28.8295V33.0642H8.06431V28.828L7.07884 29.0514C4.54903 29.6272 3.22569 31.9111 3.22569 33.8707C3.22569 35.8699 4.05959 37.4175 5.64509 38.3796V40.4079C2.31931 41.9403 0 45.2974 0 49.1935V50H1.61293V49.1935C1.61293 45.0193 4.8017 41.5758 8.87095 41.1702V50H10.4839V41.129H12.9031V50H14.516V41.129H16.129C16.458 41.129 16.7725 41.0782 17.079 41.0041C17.7798 44.7412 21.0621 47.5806 24.9999 47.5806C28.9377 47.5806 32.22 44.741 32.9208 41.0041C33.2273 41.0782 33.5418 41.129 33.8709 41.129H35.4838V50H37.0967V41.129H39.5161V50H41.129V41.17C45.1985 41.5765 48.3871 45.0193 48.3871 49.1934V49.9998H50V49.1934C49.9998 46.7135 49.0547 44.4564 47.5152 42.7418ZM10.9313 37.1806L10.4837 37.4031V39.5159H9.67724C8.84097 39.5159 8.03281 39.6336 7.25785 39.8345V37.4031L6.81041 37.1806C5.48386 36.5218 4.83862 35.4394 4.83862 33.8709C4.83862 32.8346 5.38936 31.6637 6.45155 31.0201V34.6773H11.2902V31.0184C12.3522 31.6603 12.9031 32.8329 12.9031 33.8709C12.9031 35.4394 12.2579 36.5216 10.9313 37.1806ZM37.9032 18.663C38.1274 18.5162 38.3339 18.3614 38.5169 18.1961C38.6226 18.4889 38.7097 18.8727 38.7097 19.355C38.7095 19.9493 38.383 20.4638 37.9032 20.7437V18.663ZM24.1934 1.65425V7.25819H25.8064V1.65425C32.4039 2.06561 37.6636 7.44448 37.8813 14.0921C35.0111 12.5624 28.987 12.097 24.9999 12.097C21.0128 12.097 14.9887 12.5624 12.1185 14.0913C12.3363 7.44431 17.5959 2.06443 24.1934 1.65425ZM12.0968 20.7429C11.6169 20.4638 11.2903 19.9493 11.2903 19.355C11.2903 18.872 11.3774 18.4881 11.4831 18.1953C11.6661 18.3614 11.8726 18.5162 12.0968 18.6622V20.7429ZM12.0975 16.1315C12.2555 15.309 16.9466 13.7097 24.9999 13.7097C33.058 13.7097 37.7506 15.3105 37.903 16.1291C37.9032 17.7145 33.0766 19.3548 24.9999 19.3548C16.9273 19.3548 12.1016 17.7162 12.0975 16.1315ZM13.7096 22.5805V19.4636C17.2652 20.8184 22.7756 20.9676 24.9999 20.9676C27.2242 20.9676 32.7345 20.8184 36.2903 19.4636V22.5805C36.2903 28.8063 31.2257 33.8709 24.9999 33.8709C18.7741 33.8709 13.7096 28.8063 13.7096 22.5805ZM24.9999 45.9677C21.6958 45.9677 18.9668 43.4694 18.5951 40.2628C19.5411 39.5249 20.1613 38.387 20.1613 37.0967V34.5339C21.6572 35.1419 23.2888 35.484 24.9999 35.484C26.7111 35.484 28.3426 35.142 29.8385 34.5339V37.0967C29.8385 38.387 30.4587 39.5249 31.4047 40.2628C31.033 43.4692 28.304 45.9677 24.9999 45.9677ZM40.1451 39.5161H37.9032V37.9032C37.9032 37.8807 37.912 35.5886 38.6443 33.3823L40.854 28.2258H41.129V35.6321C40.1927 35.9659 39.5161 36.8532 39.5161 37.9032C39.5161 38.5251 39.7588 39.087 40.1451 39.5161ZM41.9353 38.7097C41.491 38.7097 41.1289 38.3484 41.1289 37.9032C41.1289 37.458 41.491 37.0967 41.9353 37.0967C42.3797 37.0967 42.7418 37.458 42.7418 37.9032C42.7418 38.3484 42.3797 38.7097 41.9353 38.7097ZM45.9677 41.349C45.1338 40.7475 44.2064 40.2675 43.204 39.9539C43.8919 39.5273 44.3547 38.7708 44.3547 37.903C44.3547 36.853 43.6782 35.9659 42.7418 35.632V28.2256H43.0168L45.2024 33.3193C45.9556 35.5773 45.9677 37.8805 45.9677 37.9039V41.349Z" fill="#222222"/>
<path d="M25.8064 24.8156H30.2073V23.2026H24.1935V28.41H25.8064V24.8156Z" fill="#222222"/>
<path d="M16.129 10.4839H14.5161V12.0968H16.129V10.4839Z" fill="#222222"/>
<path d="M19.3548 9.67749H17.7419V11.2904H19.3548V9.67749Z" fill="#222222"/>
</svg>
