<svg width="50" height="50" viewBox="0 0 50 50" fill="none" xmlns="http://www.w3.org/2000/svg">
<path d="M47.9144 38.6127C46.7204 37.4189 45.1302 36.7408 43.4854 36.6686L41.5931 34.7763C42.6741 33.0063 43.4655 31.0972 43.9519 29.0863H48.8457V19.6293H43.9519C43.4656 17.6185 42.6742 15.7095 41.5931 13.9394L45.0549 10.4776L38.3679 3.79061L34.9061 7.25231C33.1361 6.17146 31.227 5.38015 29.2161 4.89383V0H19.7592V4.89383C17.7483 5.38006 15.8392 6.17156 14.0693 7.25251L10.6074 3.79081L3.92039 10.4778L7.38209 13.9396C6.30104 15.7096 5.50964 17.6187 5.02341 19.6295H0.129486V29.0865H5.02341C5.50964 31.0975 6.30114 33.0066 7.38209 34.7765L3.92039 38.2383L10.6074 44.9253L14.0693 41.4636C15.8392 42.5446 17.7483 43.336 19.7592 43.8223V48.7162H29.2161V43.8223C31.227 43.3361 33.1361 42.5446 34.906 41.4636L36.538 43.0956C36.4799 44.915 37.1653 46.7257 38.4836 48.0439C39.7616 49.3219 41.462 50 43.1961 50C44.044 50 44.8998 49.8379 45.7182 49.5044L46.7391 49.0884L42.389 44.7384L42.8625 42.9919L44.6088 42.5184L48.959 46.8685L49.375 45.8476C50.3903 43.3551 49.817 40.5155 47.9144 38.6127ZM34.6102 39.919C32.6858 41.1735 30.574 42.049 28.333 42.5209L27.7518 42.6433V47.252H21.2231V42.6433L20.6419 42.5209C18.4012 42.049 16.2892 41.1735 14.3647 39.919L13.8672 39.5948L10.6071 42.8548L5.9906 38.2381L9.25064 34.978L8.92633 34.4805C7.67184 32.5562 6.79645 30.4443 6.32438 28.2033L6.20202 27.6222H1.59364V21.0933H6.20212L6.32448 20.5121C6.79645 18.2715 7.67184 16.1596 8.92642 14.235L9.25074 13.7375L5.99069 10.4774L10.6073 5.86082L13.8675 9.12106L14.365 8.79684C16.2894 7.54226 18.4013 6.66687 20.6422 6.1949L21.2233 6.07253V1.46415H27.7521V6.07273L28.3333 6.19509C30.5741 6.66706 32.6861 7.54255 34.6105 8.79704L35.108 9.12125L38.3681 5.86121L42.9847 10.4778L39.7245 13.7379L40.0489 14.2354C41.3034 16.16 42.1788 18.2719 42.6508 20.5125L42.7732 21.0937H47.3817V27.6225H42.7732L42.6508 28.2037C42.1789 30.4444 41.3034 32.5565 40.0489 34.4809L39.846 34.7919L33.7475 28.693L33.1038 28.0493C33.6053 26.8835 33.8592 25.6443 33.8592 24.3583C33.8592 19.1909 29.6552 14.9869 24.4879 14.9869C19.3205 14.9869 15.1165 19.1908 15.1165 24.3583C15.1165 29.5257 19.3205 33.7297 24.4879 33.7297C25.7692 33.7297 27.0043 33.4775 28.1667 32.9794L34.8112 39.6243L34.9106 39.7237L34.6102 39.919ZM29.919 20.1174C28.0165 18.2147 25.1767 17.6412 22.6845 18.6568L21.6635 19.0728L26.0137 23.4229L25.5401 25.1692L23.7937 25.6428L19.4437 21.2927L19.0277 22.3136C18.0123 24.8058 18.5857 27.6455 20.4882 29.5482C22.076 31.136 24.3645 31.8116 26.5504 31.3629L27.0337 31.8462C26.219 32.1241 25.3665 32.2653 24.4877 32.2653C20.1276 32.2653 16.5804 28.7181 16.5804 24.358C16.5804 19.9979 20.1276 16.4506 24.4877 16.4506C28.8477 16.4506 32.395 19.9979 32.395 24.358C32.395 25.2416 32.2524 26.0983 31.9715 26.917L31.6387 26.5843C32.2567 24.2981 31.606 21.8043 29.919 20.1174ZM48.3361 44.175L45.0443 40.8832L41.6692 41.7985L40.7539 45.1736L44.0457 48.4655C42.4123 48.7359 40.7245 48.2143 39.5188 47.0085C38.4036 45.8933 37.8694 44.3263 38.0247 42.7886C38.0309 42.7288 38.0377 42.6693 38.0459 42.6098C38.0499 42.5802 38.0538 42.5505 38.0583 42.5211C38.0717 42.4353 38.0872 42.3501 38.1048 42.2653C38.1092 42.2442 38.1136 42.2231 38.1183 42.202C38.138 42.1124 38.1597 42.0233 38.1841 41.9351C38.1881 41.9205 38.1925 41.9061 38.1966 41.8915C38.2208 41.8068 38.2472 41.7229 38.2756 41.6396C38.375 41.4309 38.9342 40.3022 39.7531 39.4834L38.7179 38.4482C38.1666 38.9995 37.7233 39.645 37.4152 40.1578L32.6018 35.3443L28.469 31.2112H28.4689L26.9954 29.7376L26.5849 29.85C24.7818 30.3447 22.8424 29.8321 21.5233 28.5132C20.3177 27.3074 19.7959 25.6195 20.0664 23.9861L23.3582 27.2779L26.7334 26.3626L27.6486 22.9875L24.3567 19.6956C25.9902 19.4256 27.6781 19.947 28.8838 21.1527C30.2869 22.5558 30.7714 24.6741 30.1181 26.5495L29.9905 26.9159C29.7799 27.284 29.4459 27.8013 29.0328 28.2144L30.068 29.2495C30.4537 28.8638 30.776 28.4237 31.0225 28.0387L41.407 38.4237L41.8173 38.3113C41.9294 38.2805 42.0421 38.2537 42.155 38.2306C42.1749 38.2265 42.195 38.2232 42.2151 38.2194C42.2513 38.2124 42.2874 38.2053 42.3236 38.1992C42.3542 38.194 42.385 38.1897 42.4156 38.185C42.4416 38.1811 42.4676 38.1767 42.4936 38.1732C42.5233 38.1692 42.553 38.1661 42.5826 38.1625C42.6103 38.1592 42.638 38.1555 42.6656 38.1528C42.6864 38.1506 42.7073 38.1493 42.7282 38.1474C42.7655 38.1441 42.8027 38.1405 42.8397 38.138C42.845 38.1376 42.8505 38.1375 42.856 38.1372C44.3359 38.0411 45.8107 38.5799 46.8788 39.6482C48.0849 40.8537 48.6066 42.5416 48.3361 44.175Z" fill="#222222"/>
<path d="M30.0056 30.4721L31.0701 31.5366L32.1054 30.5014L31.0409 29.4369L30.0056 30.4721Z" fill="#222222"/>
<path d="M32.3459 32.8133L35.8361 36.3035L36.8713 35.2683L33.3811 31.7781L32.3459 32.8133Z" fill="#222222"/>
<path d="M28.0836 37.3335L28.4762 38.7439C29.0899 38.5731 29.6978 38.3603 30.2834 38.1116L29.7111 36.764C29.1837 36.9882 28.6362 37.1797 28.0836 37.3335Z" fill="#222222"/>
<path d="M24.4906 37.8219C17.1205 37.8219 11.1245 31.8258 11.1245 24.4557C11.1245 23.6947 11.1889 22.9321 11.3159 22.1886L9.8727 21.9421C9.73188 22.7665 9.6604 23.6123 9.6604 24.4557C9.6604 32.6331 16.3132 39.2858 24.4905 39.2858C24.9712 39.2858 25.4563 39.2626 25.9322 39.2165L25.7916 37.7593C25.3622 37.8008 24.9245 37.8219 24.4906 37.8219Z" fill="#222222"/>
<path d="M15.2441 14.804L14.2311 13.7469C13.8131 14.1475 13.4146 14.5768 13.0464 15.023L14.1757 15.9548C14.5077 15.5524 14.8671 15.1651 15.2441 14.804Z" fill="#222222"/>
<path d="M24.4906 11.0894C26.0616 11.0894 27.5995 11.3592 29.0616 11.8913L29.5623 10.5155C27.9392 9.92478 26.2328 9.62537 24.4906 9.62537C21.2315 9.62537 18.139 10.6625 15.5473 12.6246L16.431 13.7918C18.7661 12.0239 21.5532 11.0894 24.4906 11.0894Z" fill="#222222"/>
</svg>
