<svg width="50" height="50" viewBox="0 0 50 50" fill="none" xmlns="http://www.w3.org/2000/svg">
<path d="M36.714 39.6094V31.6016C36.714 30.4004 35.7284 29.4238 34.5161 29.4238H6.17983C4.96753 29.4238 3.98192 30.4004 3.98192 31.6016V39.6094C3.07515 39.9121 2.41479 40.7715 2.41479 41.7676C2.41479 43.0274 3.44969 44.0527 4.72112 44.0527H35.9748C37.2463 44.0527 38.2811 43.0274 38.2811 41.7676C38.2811 40.7715 37.6208 39.9219 36.714 39.6094ZM5.46033 31.6016C5.46033 31.2109 5.78558 30.8887 6.17983 30.8887H34.526C34.9202 30.8887 35.2455 31.2109 35.2455 31.6016V39.4922H5.46033V31.6016ZM35.9748 42.5879H4.72112C4.26774 42.5879 3.89321 42.2168 3.89321 41.7676C3.89321 41.3184 4.26774 40.9473 4.72112 40.9473H35.9748C36.4282 40.9473 36.8027 41.3184 36.8027 41.7676C36.8027 42.2266 36.4381 42.5879 35.9748 42.5879Z" fill="white"/>
<path d="M38.1825 32.2363H37.5419V33.7012H38.1825C39.0203 33.7012 39.0203 33.8965 39.0203 34.1699V43.9551C39.0203 44.6191 38.5669 45.4102 38.1825 45.4102H2.51331C2.07964 45.4102 1.47842 44.5703 1.47842 43.9551V34.1699C1.47842 34.0137 1.47842 33.7012 2.51331 33.7012H3.15395V32.2363H2.51331C1.85295 32.2363 1.31086 32.3535 0.906761 32.5879C0.325251 32.9102 0 33.4766 0 34.1699V43.9551C0 44.5703 0.256259 45.2734 0.680071 45.8398C1.18273 46.4941 1.85295 46.875 2.51331 46.875H3.15395V49.2676C3.15395 49.668 3.4792 49.9902 3.8833 49.9902C4.29726 49.9902 4.62251 49.6582 4.62251 49.2578V46.875H36.7435V49.2676C36.7435 49.668 37.0786 50 37.4827 50C37.8868 50 38.222 49.668 38.222 49.2676V46.875C39.6807 46.8359 40.4889 45.1367 40.4889 43.9551V34.1699C40.4987 33.4473 40.1932 32.2363 38.1825 32.2363Z" fill="white"/>
<path d="M9.46187 33.7988H7.88489V35.2637H9.46187V33.7988Z" fill="white"/>
<path d="M32.9095 33.7988H31.234V35.2637H32.9095V33.7988Z" fill="white"/>
<path d="M21.1807 33.7988H19.6038V35.2637H21.1807V33.7988Z" fill="white"/>
<path d="M1.67551 16.9531H22.7084C23.5363 16.9531 24.2066 16.2891 24.2066 15.4687V1.52344C24.2066 0.683594 23.5166 0 22.669 0H1.45868C0.689904 0 0.0689697 0.615234 0.0689697 1.37695V15.3613C0.0689697 16.2402 0.788465 16.9531 1.67551 16.9531ZM1.54738 1.46484H22.738V15.4883H1.54738V1.46484Z" fill="white"/>
<path d="M2.41479 2.32422V14.6289H21.8707V2.32422H2.41479ZM20.3923 13.1641H3.89321V3.78906H20.3923V13.1641Z" fill="white"/>
<path d="M32.0718 3.0957C28.6517 3.0957 25.8624 5.85938 25.8624 9.24805C25.8624 12.6367 28.6517 15.4004 32.0718 15.4004C35.4918 15.4004 38.2811 12.6367 38.2811 9.24805C38.2811 5.85938 35.4918 3.0957 32.0718 3.0957ZM32.811 13.877V13.0957H31.3326V13.877C29.3416 13.5645 27.7647 12.0215 27.4098 10.0684H28.2772V8.60352H27.3803C27.6661 6.5625 29.2825 4.93164 31.3227 4.61914V5.67383H32.8011V4.61914C34.8512 4.94141 36.4676 6.5625 36.7436 8.60352H35.7481V10.0684H36.714C36.3789 12.0313 34.8019 13.5742 32.811 13.877Z" fill="white"/>
<path d="M31.3326 6.8457V8.60352H28.8685V10.0684H32.811V6.8457H31.3326Z" fill="white"/>
<path d="M46.1068 46.1719V28.916H44.6284V46.1719H40.7057V49.9609H50V46.1719H46.1068ZM48.5216 48.4863H42.1841V47.627H48.5216V48.4863Z" fill="white"/>
<path d="M42.2728 11.5723V25.5762C42.2728 26.377 42.9233 27.0215 43.7315 27.0215H44.6383V28.2324H46.1167V27.0215H46.9742C47.7922 27.0215 48.4526 26.3672 48.4526 25.5566V11.5625C48.4526 10.7324 47.7725 10.0684 46.9446 10.0684H43.8104C42.9529 10.0684 42.2728 10.7422 42.2728 11.5723ZM46.9643 23.252H45.3282C44.9438 23.252 44.6383 23.5547 44.6383 23.9355C44.6383 24.3652 44.9931 24.7168 45.4268 24.7168H46.9643V25.5566H43.7512V11.5332H46.9643V23.252Z" fill="white"/>
<path d="M10.4459 5.63193L8.88477 7.17871L9.93015 8.2145L11.4913 6.66772L10.4459 5.63193Z" fill="white"/>
<path d="M14.3571 4.855L8.88623 10.2756L9.93162 11.3114L15.4025 5.89079L14.3571 4.855Z" fill="white"/>
<path d="M14.3558 8.73789L12.7947 10.2847L13.8401 11.3205L15.4012 9.77368L14.3558 8.73789Z" fill="white"/>
</svg>
