<svg width="50" height="50" viewBox="0 0 50 50" fill="none" xmlns="http://www.w3.org/2000/svg">
<path d="M29.1443 29.3032L25 22.6718L20.8556 29.3032C20.4016 30.029 20.1613 30.8661 20.1613 31.7234C20.1613 34.2419 22.2096 36.2903 24.7282 36.2903H25.2725C27.7903 36.2903 29.8387 34.2419 29.8387 31.7234C29.8387 30.8661 29.5984 30.029 29.1443 29.3032ZM25.2717 34.6774H24.7274C23.0992 34.6774 21.7742 33.3524 21.7742 31.7234C21.7742 31.1685 21.929 30.6282 22.2234 30.158L25 25.7153L27.7766 30.1589C28.0709 30.6282 28.2258 31.1693 28.2258 31.7234C28.2258 33.3524 26.9008 34.6774 25.2717 34.6774Z" fill="#222222"/>
<path d="M33.0645 19.3549H16.9355C15.6016 19.3549 14.5161 20.4403 14.5161 21.7742V42.742C14.5161 44.0758 15.6016 45.1613 16.9355 45.1613H33.0645C34.3984 45.1613 35.4839 44.0758 35.4839 42.742V21.7742C35.4839 20.4403 34.3984 19.3549 33.0645 19.3549ZM33.871 42.742C33.871 43.1863 33.5089 43.5484 33.0645 43.5484H16.9355C16.4911 43.5484 16.129 43.1863 16.129 42.742V21.7742C16.129 21.3299 16.4911 20.9678 16.9355 20.9678H33.0645C33.5089 20.9678 33.871 21.3299 33.871 21.7742V42.742Z" fill="#222222"/>
<path d="M37.9831 16.7677L28.2258 10.0597V6.45161H26.6129V2.41935C26.6129 1.08548 25.5274 0 24.1936 0H12.9032C11.5694 0 10.4839 1.08548 10.4839 2.41935V6.45161H8.87097V10.4839V11.2903V46.7742C8.87097 48.5532 10.3177 50 12.0968 50H37.9032C39.6823 50 41.129 48.5532 41.129 46.7742V22.7484C41.129 20.3581 39.9532 18.1218 37.9831 16.7677ZM12.0968 2.41935C12.0968 1.975 12.4589 1.6129 12.9032 1.6129H14.5161V4.83871H16.129V1.6129H17.7419V4.83871H19.3548V1.6129H20.9677V4.83871H22.5806V1.6129H24.1936C24.6379 1.6129 25 1.975 25 2.41935V6.45161H12.0968V2.41935ZM39.5161 46.7742C39.5161 47.6637 38.7927 48.3871 37.9032 48.3871H12.0968C11.2073 48.3871 10.4839 47.6637 10.4839 46.7742V11.2903H23.3871V9.67742H10.4839V8.06452H26.6129V9.67742H25V11.2903H27.1686L37.0694 18.0968C38.6016 19.15 39.5161 20.8895 39.5161 22.7492V46.7742Z" fill="#222222"/>
<path d="M22.5807 39.5161H20.9678V41.129H22.5807V39.5161Z" fill="#222222"/>
<path d="M25.8065 39.5161H24.1936V41.129H25.8065V39.5161Z" fill="#222222"/>
<path d="M29.0322 39.5161H27.4193V41.129H29.0322V39.5161Z" fill="#222222"/>
</svg>
