<svg width="50" height="50" viewBox="0 0 50 50" fill="none" xmlns="http://www.w3.org/2000/svg">
<path d="M46.0008 12.9166H38.8975L35.5642 4.58325H14.4358L11.1025 12.9166H10V8.74992H5V12.9166H3.99917C1.79333 12.9166 0 14.7099 0 16.9158V41.3891C0 43.6099 1.80667 45.4166 4.0275 45.4166H45.9725C48.1933 45.4166 50 43.6099 50 41.3891V16.9158C50 14.7099 48.2067 12.9166 46.0008 12.9166ZM6.66667 10.4166H8.33333V12.9166H6.66667V10.4166ZM48.3333 41.3891C48.3333 42.6916 47.2742 43.7499 45.9725 43.7499H4.0275C2.72583 43.7499 1.66667 42.6908 1.66667 41.3891V16.9158C1.66667 15.6299 2.71333 14.5833 3.99917 14.5833H5H10H12.2308L15.5642 6.24992H34.4358L37.7692 14.5833H46.0008C47.2867 14.5833 48.3333 15.6299 48.3333 16.9158V41.3891Z" fill="white"/>
<path d="M25 12.0833C16.7292 12.0833 10 18.8124 10 27.0833C10 35.3541 16.7292 42.0833 25 42.0833C33.2708 42.0833 40 35.3541 40 27.0833C40 18.8124 33.2708 12.0833 25 12.0833ZM25 40.4166C17.6483 40.4166 11.6667 34.4349 11.6667 27.0833C11.6667 19.7316 17.6483 13.7499 25 13.7499C32.3517 13.7499 38.3333 19.7316 38.3333 27.0833C38.3333 34.4349 32.3517 40.4166 25 40.4166Z" fill="white"/>
<path d="M25 17.0833C19.4858 17.0833 15 21.5691 15 27.0833C15 32.5974 19.4858 37.0833 25 37.0833C30.5142 37.0833 35 32.5974 35 27.0833C35 21.5691 30.5142 17.0833 25 17.0833ZM25 35.4166C20.405 35.4166 16.6667 31.6783 16.6667 27.0833C16.6667 22.4883 20.405 18.7499 25 18.7499C29.595 18.7499 33.3333 22.4883 33.3333 27.0833C33.3333 31.6783 29.595 35.4166 25 35.4166Z" fill="white"/>
<path d="M43.3333 16.25C41.495 16.25 40 17.745 40 19.5833C40 21.4217 41.495 22.9167 43.3333 22.9167C45.1717 22.9167 46.6667 21.4217 46.6667 19.5833C46.6667 17.745 45.1717 16.25 43.3333 16.25ZM43.3333 21.25C42.4142 21.25 41.6667 20.5025 41.6667 19.5833C41.6667 18.6642 42.4142 17.9167 43.3333 17.9167C44.2525 17.9167 45 18.6642 45 19.5833C45 20.5025 44.2525 21.25 43.3333 21.25Z" fill="white"/>
</svg>
