<svg width="50" height="50" viewBox="0 0 50 50" fill="none" xmlns="http://www.w3.org/2000/svg">
<path d="M21.667 34.1685V30.8356H26.6664V29.1692H21.667V25.003C21.667 24.5429 21.2939 24.1698 20.8338 24.1698H16.6676V19.1704C16.6649 16.8707 14.8012 15.007 12.5015 15.0043H4.1692C1.86949 15.007 0.00575975 16.8707 0.00305176 19.1704V45.8338C0.00575975 48.1335 1.86949 49.9972 4.1692 49.9999H12.5015C14.8012 49.9972 16.6649 48.1335 16.6676 45.8338V40.8344H20.8338C21.2939 40.8344 21.667 40.4613 21.667 40.0011V35.835H28.3328V34.1685H21.667ZM15.0012 45.8338C15.0012 47.2143 13.882 48.3334 12.5015 48.3334V46.667H10.835V48.3334H4.1692C2.78864 48.3334 1.66951 47.2143 1.66951 45.8338V19.1704C1.66951 17.7899 2.78864 16.6707 4.1692 16.6707V46.667H5.83566V16.6707H10.835V41.6676H12.5015V16.6707C13.882 16.6707 15.0012 17.7899 15.0012 19.1704V45.8338ZM20.0006 39.1679H16.6676V25.8363H20.0006V39.1679Z" fill="#222222"/>
<path d="M12.5015 43.3341H10.8351V45.0006H12.5015V43.3341Z" fill="#222222"/>
<path d="M49.1636 26.6696H44.1642C43.7041 26.6696 43.331 27.0426 43.331 27.5028V29.1692H38.3316V30.8357H43.331V34.1686H36.6652V35.8351H43.331V37.5015C43.331 37.9617 43.7041 38.3348 44.1642 38.3348H49.1636C49.6237 38.3348 49.9968 37.9617 49.9968 37.5015V27.5028C49.9968 27.0425 49.6237 26.6696 49.1636 26.6696ZM48.3304 36.6683H44.9975V28.336H48.3304V36.6683Z" fill="#222222"/>
<path d="M36.6651 10.0051V9.17188C36.6647 7.78663 35.9758 6.49221 34.827 5.71814C36.1443 4.43237 36.1698 2.32232 34.8841 1.00509C33.5983 -0.312249 31.4882 -0.337766 30.1709 0.947906C28.8537 2.23368 28.8282 4.34373 30.1139 5.66107C30.1326 5.68033 30.1517 5.69929 30.1709 5.71804C29.0221 6.49211 28.3333 7.78653 28.3328 9.17177V10.005H26.6664V11.6715H38.3316V10.005H36.6651V10.0051ZM32.499 1.67282C33.4194 1.67282 34.1654 2.41887 34.1654 3.33927C34.1654 4.25968 33.4194 5.00573 32.499 5.00573C31.5786 5.00573 30.8325 4.25968 30.8325 3.33927C30.8325 2.41887 31.5786 1.67282 32.499 1.67282ZM34.9987 10.0051H29.9993V9.17188C29.9993 7.79132 31.1184 6.67219 32.499 6.67219C33.8795 6.67219 34.9987 7.79132 34.9987 9.17188V10.0051Z" fill="#222222"/>
<path d="M26.6664 24.1698V25.8363H28.3328V26.6695C28.3333 28.0547 29.0221 29.3492 30.1709 30.1232C28.8537 31.409 28.8282 33.519 30.114 34.8364C31.3997 36.1536 33.5098 36.1791 34.8271 34.8935C36.1444 33.6077 36.1699 31.4976 34.8841 30.1803C34.8654 30.161 34.8463 30.1421 34.8271 30.1232C35.9759 29.3492 36.6648 28.0547 36.6652 26.6695V25.8363H38.3317V24.1698H26.6664V24.1698ZM32.499 34.1685C31.5786 34.1685 30.8325 33.4225 30.8325 32.5021C30.8325 31.5817 31.5786 30.8356 32.499 30.8356C33.4194 30.8356 34.1654 31.5817 34.1654 32.5021C34.1654 33.4225 33.4193 34.1685 32.499 34.1685ZM34.9987 26.6695C34.9987 28.05 33.8795 29.1692 32.499 29.1692C31.1184 29.1692 29.9993 28.05 29.9993 26.6695V25.8363H34.9987V26.6695Z" fill="#222222"/>
<path d="M26.6664 14.1711V15.8376L38.3316 15.0043V13.3379L26.6664 14.1711Z" fill="#222222"/>
<path d="M26.6664 17.504V19.1705L38.3316 18.3372V16.6708L26.6664 17.504Z" fill="#222222"/>
<path d="M26.6664 20.8369V22.5033L38.3316 21.6701V20.0037L26.6664 20.8369Z" fill="#222222"/>
<path d="M33.3322 7.50525H31.6658V9.17171H33.3322V7.50525Z" fill="#222222"/>
<path d="M33.3322 26.6696H31.6658V28.336H33.3322V26.6696Z" fill="#222222"/>
</svg>
