<svg width="50" height="50" viewBox="0 0 50 50" fill="none" xmlns="http://www.w3.org/2000/svg">
<path d="M35.7382 19.6868H33.9488C33.4855 19.6868 33.1098 20.0624 33.1098 20.5257C33.1098 20.989 33.4854 21.3647 33.9488 21.3647H35.7382C36.2014 21.3647 36.5771 20.9891 36.5771 20.5257C36.577 20.0624 36.2014 19.6868 35.7382 19.6868Z" fill="#222222"/>
<path d="M35.9587 26.6176C35.6278 26.1939 35.1297 25.9508 34.5921 25.9508H15.4078C14.8702 25.9508 14.3722 26.1939 14.0412 26.6176C13.7104 27.0414 13.5953 27.5835 13.7258 28.1051L14.1733 29.8949C14.3666 30.6681 15.0583 31.2081 15.8553 31.2081H34.1447C34.9417 31.2081 35.6333 30.6681 35.8268 29.8948L36.2742 28.1051C36.4046 27.5834 36.2896 27.0413 35.9587 26.6176ZM34.6464 27.6983L34.1989 29.4879C34.1927 29.513 34.1704 29.5303 34.1447 29.5303H15.8553C15.8296 29.5303 15.8071 29.5128 15.801 29.488L15.3535 27.6983C15.3515 27.6904 15.3469 27.6718 15.3637 27.6503C15.3805 27.6288 15.3996 27.6288 15.4077 27.6288H34.5921C34.6003 27.6288 34.6193 27.6288 34.6361 27.6503C34.6529 27.6718 34.6484 27.6903 34.6464 27.6983Z" fill="#222222"/>
<path d="M47.3714 21.3647C48.8208 21.3647 50 20.1855 50 18.7361C50 17.2867 48.8208 16.1075 47.3714 16.1075H46.4766C45.1696 16.1075 44.0827 17.0665 43.8815 18.3175L41.6436 12.1629C41.1392 10.7755 39.8084 9.84351 38.3322 9.84351C27.0195 9.84351 21.419 9.84351 11.6677 9.84351C10.1915 9.84351 8.86074 10.7756 8.35635 12.1628L6.11846 18.3174C5.91738 17.0665 4.83047 16.1075 3.52354 16.1075H2.62871C1.1792 16.1075 0 17.2867 0 18.7361C0 20.1855 1.1792 21.3647 2.62861 21.3647H3.52344C3.93662 21.3647 4.32764 21.2686 4.67588 21.098L2.75791 23.4956C2.1335 24.276 1.78965 25.2562 1.78965 26.2556V42.8971C1.78965 43.8532 2.56738 44.6309 3.52344 44.6309H6.20801C7.16406 44.6309 7.9418 43.8532 7.9418 42.8971V39.2618H42.0581V42.8971C42.0581 43.8532 42.8358 44.6309 43.7919 44.6309H46.4765C47.4325 44.6309 48.2103 43.8532 48.2103 42.8971V26.2556C48.2103 25.2562 47.8664 24.2759 47.242 23.4956L45.324 21.098C45.6723 21.2686 46.0633 21.3647 46.4765 21.3647H47.3714ZM3.52354 19.6869H2.62871C2.10439 19.6869 1.67793 19.2604 1.67793 18.7361C1.67793 18.2118 2.10439 17.7853 2.62871 17.7853H3.52354C4.04785 17.7853 4.47432 18.2118 4.47432 18.7361C4.47432 19.2603 4.04775 19.6869 3.52354 19.6869ZM6.26396 42.8971C6.26396 42.928 6.23887 42.9531 6.20801 42.9531H3.52344C3.49258 42.9531 3.46748 42.928 3.46748 42.8971V38.7381C4.00459 39.0698 4.63682 39.2618 5.31309 39.2618H6.26387L6.26396 42.8971ZM34.8993 37.5839H15.1007V35.7383C15.1007 35.7075 15.1258 35.6824 15.1566 35.6824H34.8435C34.8743 35.6824 34.8994 35.7075 34.8994 35.7383V37.5839H34.8993ZM46.5324 42.8971C46.5324 42.928 46.5073 42.9531 46.4765 42.9531H43.7919C43.761 42.9531 43.7359 42.928 43.7359 42.8971V39.2618H44.6867C45.363 39.2618 45.9952 39.0698 46.5323 38.7381V42.8971H46.5324ZM45.932 24.5437C46.3191 25.0278 46.5325 25.6358 46.5325 26.2557V35.7383C46.5325 36.756 45.7046 37.5839 44.6869 37.5839H36.5771V35.7383C36.5771 34.7823 35.7994 34.0045 34.8434 34.0045H15.1566C14.2006 34.0045 13.4229 34.7823 13.4229 35.7383V37.5839H5.31318C4.29551 37.5839 3.46758 36.756 3.46758 35.7383V26.2557C3.46758 25.6358 3.68086 25.0278 4.06816 24.5437L6.61123 21.3647H30.3691C30.8324 21.3647 31.2081 20.9891 31.2081 20.5257C31.2081 20.0624 30.8325 19.6868 30.3691 19.6868H7.40586L9.9334 12.7361C10.1976 12.0094 10.8946 11.5212 11.6679 11.5212H38.3323C39.1056 11.5212 39.8025 12.0095 40.0668 12.7361L42.5943 19.6868H39.3179C38.8546 19.6868 38.4789 20.0624 38.4789 20.5257C38.4789 20.989 38.8545 21.3647 39.3179 21.3647H43.389L45.932 24.5437ZM45.5257 18.7361C45.5257 18.2118 45.9521 17.7853 46.4765 17.7853H47.3713C47.8956 17.7853 48.3221 18.2118 48.3221 18.7361C48.3221 19.2604 47.8956 19.6869 47.3713 19.6869H46.4765C45.9522 19.6869 45.5257 19.2603 45.5257 18.7361Z" fill="#222222"/>
<path d="M8.89254 32.2147C7.93649 32.2147 7.15875 32.9925 7.15875 33.9485C7.15875 34.9046 7.93649 35.6823 8.89254 35.6823C9.8486 35.6823 10.6263 34.9046 10.6263 33.9485C10.6263 32.9925 9.8486 32.2147 8.89254 32.2147Z" fill="#222222"/>
<path d="M41.1074 32.2147C40.1513 32.2147 39.3736 32.9925 39.3736 33.9485C39.3736 34.9046 40.1513 35.6823 41.1074 35.6823C42.0634 35.6823 42.8412 34.9046 42.8412 33.9485C42.8412 32.9925 42.0633 32.2147 41.1074 32.2147Z" fill="#222222"/>
<path d="M8.44524 25.0559C6.74905 25.0559 5.36917 26.4358 5.36917 28.132C5.36917 29.8282 6.74905 31.2081 8.44524 31.2081C10.1414 31.2081 11.5213 29.8282 11.5213 28.132C11.5213 26.4358 10.1414 25.0559 8.44524 25.0559ZM8.44524 29.5301C7.67425 29.5301 7.047 28.903 7.047 28.1319C7.047 27.3608 7.67415 26.7336 8.44524 26.7336C9.21634 26.7336 9.84348 27.3608 9.84348 28.1319C9.84348 28.903 9.21624 29.5301 8.44524 29.5301Z" fill="#222222"/>
<path d="M41.5548 25.0559C39.8586 25.0559 38.4787 26.4358 38.4787 28.132C38.4787 29.8282 39.8586 31.2081 41.5548 31.2081C43.251 31.2081 44.6309 29.8282 44.6309 28.132C44.6309 26.4358 43.251 25.0559 41.5548 25.0559ZM41.5548 29.5301C40.7838 29.5301 40.1566 28.903 40.1566 28.1319C40.1566 27.3608 40.7837 26.7336 41.5548 26.7336C42.3258 26.7336 42.953 27.3608 42.953 28.1319C42.953 28.903 42.3259 29.5301 41.5548 29.5301Z" fill="#222222"/>
</svg>
