<svg width="50" height="50" viewBox="0 0 50 50" fill="none" xmlns="http://www.w3.org/2000/svg">
<path d="M30.0021 17.4879C30.0021 17.9481 30.3747 18.3216 30.8357 18.3216H39.1723C39.6334 18.3216 40.006 17.9481 40.006 17.4879C40.006 17.0278 39.6334 16.6543 39.1723 16.6543H30.8357C30.3747 16.6542 30.0021 17.0277 30.0021 17.4879Z" fill="#222222"/>
<path d="M35.0042 22.4899C35.0042 22.95 35.3768 23.3235 35.8378 23.3235H40.8398C41.3008 23.3235 41.6734 22.95 41.6734 22.4899C41.6734 22.0297 41.3008 21.6563 40.8398 21.6563H35.8378C35.3768 21.6562 35.0042 22.0296 35.0042 22.4899Z" fill="#222222"/>
<path d="M34.1703 13.3195C34.6313 13.3195 35.0039 12.946 35.0039 12.4859C35.0039 12.0257 34.6313 11.6522 34.1703 11.6522H32.5029C32.0419 11.6522 31.6693 12.0257 31.6693 12.4859C31.6693 12.946 32.0419 13.3195 32.5029 13.3195H34.1703Z" fill="#222222"/>
<path d="M24.1664 21.6561C23.7054 21.6561 23.3328 22.0296 23.3328 22.4898C23.3328 22.9499 23.7054 23.3234 24.1664 23.3234H32.503C32.9641 23.3234 33.3367 22.9499 33.3367 22.4898C33.3367 22.0296 32.9641 21.6561 32.503 21.6561H24.1664Z" fill="#222222"/>
<path d="M28.3347 44.9988H12.4951C11.1162 44.9988 9.99407 43.8767 9.99407 42.4978V4.14906C9.99407 3.68892 9.62146 3.31543 9.16043 3.31543C6.86205 3.31543 4.99207 5.18532 4.99207 7.4838C4.99207 7.94394 5.36468 8.31743 5.8257 8.31743C6.28672 8.31743 6.65933 7.94394 6.65933 7.4838C6.65933 6.39664 7.35629 5.46961 8.3267 5.12533V42.4978C8.3267 44.7962 10.1966 46.6662 12.4951 46.6662H28.3347C28.7957 46.6662 29.1683 46.2927 29.1683 45.8325C29.1683 45.3724 28.7957 44.9988 28.3347 44.9988Z" fill="#222222"/>
<path d="M15.8296 18.3216H27.501C27.962 18.3216 28.3346 17.9481 28.3346 17.4879C28.3346 17.0278 27.962 16.6543 27.501 16.6543H15.8296C15.3686 16.6543 14.996 17.0278 14.996 17.4879C14.996 17.9481 15.3686 18.3216 15.8296 18.3216Z" fill="#222222"/>
<path d="M15.8296 13.3195H19.1642C19.6253 13.3195 19.9979 12.946 19.9979 12.4859C19.9979 12.0257 19.6253 11.6522 19.1642 11.6522H15.8296C15.3686 11.6522 14.996 12.0257 14.996 12.4859C14.996 12.946 15.3686 13.3195 15.8296 13.3195Z" fill="#222222"/>
<path d="M29.1683 11.6521H22.4989C22.0379 11.6521 21.6653 12.0256 21.6653 12.4857C21.6653 12.9459 22.0379 13.3194 22.4989 13.3194H29.1683C29.6293 13.3194 30.0019 12.9459 30.0019 12.4857C30.002 12.0256 29.6293 11.6521 29.1683 11.6521Z" fill="#222222"/>
<path d="M40.8397 0H9.16035C5.03282 0 1.67318 3.35046 1.65735 7.47379V7.48376V7.49294V7.503V7.51297C1.66819 10.1716 3.10295 12.6483 5.40797 13.9823C5.80647 14.2123 6.31585 14.0764 6.54671 13.6788C6.77844 13.2803 6.64089 12.7702 6.24327 12.54C4.44596 11.4987 3.32804 9.56633 3.32472 7.49304C3.33058 4.28003 5.94578 1.66737 9.16035 1.66737H40.8397C44.0568 1.66737 46.6754 4.28511 46.6754 7.503V42.517C46.6754 42.9397 46.557 43.364 46.3344 43.7425C46.1018 44.1393 46.2335 44.6504 46.6303 44.8838C46.7637 44.9621 46.9088 44.9989 47.0522 44.9989C47.3381 44.9989 47.6166 44.8521 47.7716 44.5879C48.1451 43.9534 48.3426 43.2373 48.3426 42.517V7.503C48.3427 3.36551 44.9772 0 40.8397 0Z" fill="#222222"/>
<path d="M43.3408 38.3295C43.3408 35.5709 41.0974 33.3275 38.3388 33.3275C35.5802 33.3275 33.3368 35.5709 33.3368 38.3295C33.3368 41.0881 35.5802 43.3315 38.3388 43.3315C41.0974 43.3315 43.3408 41.0881 43.3408 38.3295ZM38.3388 41.6642C36.4997 41.6642 35.0042 40.1685 35.0042 38.3295C35.0042 36.4905 36.4998 34.9949 38.3388 34.9949C40.1779 34.9949 41.6734 36.4905 41.6734 38.3295C41.6734 40.1685 40.1779 41.6642 38.3388 41.6642Z" fill="#222222"/>
<path d="M36.834 44.1661C36.4364 43.936 35.9261 44.0727 35.6952 44.4712L33.9003 47.5816L33.6152 47.1514C33.471 46.9322 33.2318 46.7938 32.97 46.7788L32.4547 46.748L34.2797 43.5884C34.5097 43.1899 34.3731 42.6797 33.9746 42.4496C33.5761 42.2186 33.0659 42.3554 32.8349 42.7547L30.3365 47.0823C30.1923 47.3324 30.1881 47.64 30.3248 47.8942C30.4614 48.1484 30.7199 48.3144 31.0092 48.331L32.4539 48.4177L33.2517 49.6257C33.406 49.86 33.6677 50 33.947 50H33.9729C34.2605 49.9908 34.5248 49.8332 34.6699 49.5831L37.14 45.3047C37.3701 44.9064 37.2334 44.3961 36.834 44.1661Z" fill="#222222"/>
<path d="M43.8643 42.7939C43.6334 42.3946 43.1223 42.2578 42.7255 42.4888C42.3262 42.7188 42.1894 43.2291 42.4195 43.6275L44.2228 46.7479L43.7075 46.7787C43.4458 46.7946 43.2065 46.933 43.0614 47.1514L42.778 47.5815L40.9924 44.4869C40.7606 44.0884 40.2504 43.9517 39.8527 44.1818C39.4542 44.4119 39.3176 44.9221 39.5476 45.3206L42.0086 49.5832C42.1537 49.8333 42.4179 49.9909 42.7055 50.0001H42.7314C43.0099 50.0001 43.2725 49.86 43.4275 49.6258L44.2245 48.4187L45.6684 48.3311C45.9577 48.3144 46.2161 48.1485 46.3529 47.8943C46.4897 47.6401 46.4846 47.3325 46.3413 47.0824L43.8643 42.7939Z" fill="#222222"/>
<path d="M15.8296 23.3235H20.8316C21.2926 23.3235 21.6652 22.95 21.6652 22.4899C21.6652 22.0297 21.2926 21.6562 20.8316 21.6562H15.8296C15.3686 21.6562 14.996 22.0297 14.996 22.4899C14.996 22.95 15.3686 23.3235 15.8296 23.3235Z" fill="#222222"/>
<path d="M15.8296 28.3255H25.8336C26.2946 28.3255 26.6672 27.952 26.6672 27.4918C26.6672 27.0317 26.2946 26.6582 25.8336 26.6582H15.8296C15.3686 26.6582 14.996 27.0317 14.996 27.4918C14.996 27.952 15.3686 28.3255 15.8296 28.3255Z" fill="#222222"/>
<path d="M15.918 38.702C16.1231 39.1138 16.6242 39.2806 17.0359 39.0755C17.4477 38.8696 17.6154 38.3686 17.4085 37.9567C16.5832 36.3061 16.3982 34.8255 16.9117 33.9943C17.1851 33.5516 17.662 33.3273 18.3306 33.3273C18.7282 33.3273 18.8766 33.464 18.97 33.5975C19.5911 34.4928 19.0009 37.2197 18.3832 38.8704C18.2456 39.238 18.3832 39.6515 18.7133 39.8641C19.0417 40.075 19.4761 40.0292 19.7537 39.7525C20.1097 39.3973 20.4957 39.043 20.8317 38.7554V39.1631C20.8317 39.4998 21.0343 39.8041 21.3461 39.9325C21.6578 40.0625 22.0155 39.9908 22.2547 39.7525C22.6357 39.3723 23.0775 38.9996 23.4493 38.7312C23.4394 38.7521 23.4293 38.7721 23.4194 38.7912C23.2918 39.0496 23.3059 39.3565 23.4577 39.6015C23.6103 39.8466 23.8779 39.9967 24.1663 39.9967H27.501C27.962 39.9967 28.3346 39.6232 28.3346 39.1631C28.3346 38.7029 27.962 38.3294 27.501 38.3294H25.331C25.3985 37.9326 25.3819 37.5291 25.1809 37.204C24.9683 36.8597 24.5981 36.6621 24.1663 36.6621C23.6511 36.6621 23.0451 36.9755 22.4915 37.364C22.449 37.0005 22.2339 36.7012 21.9071 36.5662C21.6846 36.4745 21.3977 36.3545 20.7017 36.7722C20.9759 35.3357 21.056 33.6801 20.3407 32.6481C20.0281 32.197 19.4262 31.6602 18.3307 31.6602C17.0819 31.6602 16.0739 32.1778 15.4929 33.1183C14.6617 34.4637 14.8159 36.4987 15.918 38.702Z" fill="#222222"/>
<path d="M38.3387 27.4918C38.3387 27.0317 37.9661 26.6582 37.5051 26.6582H29.1685C28.7074 26.6582 28.3348 27.0317 28.3348 27.4918C28.3348 27.952 28.7074 28.3255 29.1685 28.3255H37.5051C37.9661 28.3255 38.3387 27.952 38.3387 27.4918Z" fill="#222222"/>
</svg>
