<svg width="50" height="50" viewBox="0 0 50 50" fill="none" xmlns="http://www.w3.org/2000/svg">
<g clip-path="url(#clip0)">
<path d="M31.475 0.852649C21.7103 -1.7636 11.3311 1.75956 5.17719 9.77992C-0.976712 17.7999 -1.6937 28.7374 3.36107 37.4923C6.6615 43.2446 12.1259 47.4378 18.5364 49.1376C20.6596 49.7082 22.8479 49.998 25.0465 49.9999C33.9696 49.982 42.207 45.2102 46.6615 37.4782C51.1156 29.7461 51.1114 20.2262 46.6504 12.4984C43.35 6.74568 37.8856 2.55245 31.475 0.852649V0.852649ZM47.5386 31.0329C45.0963 40.1463 37.4051 46.8909 28.0506 48.1228C18.6966 49.3543 9.52145 44.8296 4.80382 36.659C0.645665 29.4456 0.644521 20.5637 4.8 13.3492C8.95587 6.13472 16.6398 1.67986 24.9657 1.65735C27.0175 1.65888 29.0602 1.92966 31.0418 2.46244C37.018 4.06346 42.1132 7.97296 45.2069 13.3309C48.3006 18.6893 49.1389 25.0567 47.5375 31.0329H47.5386Z" fill="#222222"/>
<path d="M15.003 7.68211C15.6513 7.3137 16.3187 6.98 17.0025 6.68214C17.2756 6.56315 17.4644 6.30763 17.4976 6.01168C17.5311 5.71573 17.4038 5.42436 17.1642 5.24779C16.9247 5.07083 16.609 5.03536 16.3363 5.15435C15.5972 5.47661 14.876 5.83739 14.175 6.23555C10.1004 8.56767 6.90368 12.1728 5.0765 16.4973C4.89649 16.921 5.09443 17.4103 5.51814 17.5899C5.94223 17.7695 6.43115 17.572 6.61078 17.1479C8.29609 13.1587 11.2445 9.83308 15.003 7.68211Z" fill="#222222"/>
<path d="M44.4933 32.401C44.29 32.3144 44.0605 32.3125 43.8553 32.3953C43.6505 32.478 43.4865 32.639 43.4003 32.8426C41.7138 36.833 38.7639 40.1593 35.0031 42.3103C33.692 43.062 32.3015 43.6657 30.8568 44.1104C30.4621 44.2317 30.2153 44.6237 30.2775 45.0322C30.3393 45.4403 30.6913 45.7416 31.1043 45.74C31.1871 45.7408 31.2698 45.7282 31.3492 45.7034C32.912 45.2214 34.417 44.5681 35.8364 43.755C39.9111 41.4228 43.1074 37.8177 44.935 33.4933C45.1146 33.0695 44.917 32.5806 44.4933 32.401V32.401Z" fill="#222222"/>
<path d="M34.9341 37.3005C34.9455 37.2929 34.9589 37.2921 34.9707 37.2849C34.9902 37.2666 35.0085 37.2475 35.0256 37.2273C39.3482 33.6755 41.4793 28.1093 40.6342 22.579C40.6342 22.5691 40.6284 22.5607 40.6284 22.5515C40.0488 18.7034 38.0496 15.2116 35.0249 12.7631C35.0039 12.7456 34.9925 12.7215 34.97 12.7055C34.9608 12.6998 34.9497 12.699 34.9406 12.6933C30.5567 9.16368 24.6301 8.22282 19.3686 10.2212C19.3602 10.2254 19.351 10.2212 19.3419 10.2281L19.3312 10.2365C17.7832 10.8055 16.3443 11.6354 15.0762 12.6899C15.0648 12.6975 15.0514 12.6983 15.0396 12.7055C15.0205 12.7238 15.0018 12.7429 14.9847 12.7631C10.6625 16.3149 8.53177 21.8815 9.3769 27.4114C9.3769 27.4213 9.38262 27.4297 9.38262 27.4389C10.2148 33.0459 13.9973 37.7723 19.2855 39.8134C24.5736 41.8542 30.5506 40.8946 34.9341 37.3005V37.3005ZM28.2997 28.8576C28.2764 28.8706 28.2535 28.8847 28.2314 28.8999L27.5201 29.3168L26.0637 30.1581C25.8379 30.2923 25.6899 30.5265 25.6655 30.7881C25.124 30.845 24.5767 30.827 24.0401 30.7347C23.9188 30.3305 23.6488 29.9876 23.2846 29.7748L21.7282 28.8759C21.3598 28.6661 20.9254 28.6044 20.5135 28.7035C20.3045 28.4564 20.1169 28.1917 19.9529 27.9129C19.795 27.6341 19.6611 27.342 19.5528 27.0407C19.8457 26.7314 20.0085 26.3211 20.007 25.8951V24.0953C20.0078 23.6713 19.8453 23.2632 19.5536 22.9558C19.7431 22.4489 20.0017 21.9707 20.3217 21.5344C20.5593 21.6496 20.8384 21.6374 21.065 21.502L21.6824 21.1446C21.6916 21.1393 21.7022 21.1385 21.7114 21.1328C21.735 21.1198 21.7579 21.1057 21.7797 21.0905L22.4913 20.6736L23.9474 19.8323C24.1732 19.6981 24.3212 19.4639 24.3459 19.2023C24.8852 19.1455 25.4298 19.163 25.9645 19.2541C26.0881 19.6596 26.3611 20.0028 26.7284 20.2137L28.2798 21.1153C28.6494 21.3277 29.0868 21.3902 29.5014 21.2903C29.7085 21.5371 29.8946 21.8002 30.0586 22.0775C30.2165 22.3563 30.3503 22.6484 30.4587 22.9497C30.1654 23.259 30.0029 23.6693 30.0044 24.0953V25.8951C30.0037 26.3192 30.1658 26.7272 30.4575 27.0346C30.2676 27.5422 30.0086 28.0209 29.6879 28.4575C29.4499 28.3488 29.1742 28.3603 28.9465 28.4884L28.3382 28.8408C28.3256 28.8477 28.3123 28.8511 28.2997 28.8576ZM16.7192 36.3307L20.8956 30.3164L22.452 31.2145L19.3312 37.8356L16.7192 36.3307ZM10.9459 23.4756L18.3404 24.0953V25.8985L10.9367 26.5156C10.8303 25.5049 10.833 24.4859 10.9447 23.4756H10.9459ZM33.3571 13.5613L29.1132 19.6733L27.5568 18.7744L30.7275 12.0499C31.6566 12.4588 32.5387 12.9668 33.3586 13.5648L33.3571 13.5613ZM39.0648 26.5114L31.6707 25.8951V24.0919L39.0747 23.4748C39.1811 24.4855 39.1784 25.5045 39.0663 26.5148L39.0648 26.5114ZM34.6458 35.357L30.766 29.7748C31.3034 29.1261 31.7279 28.3919 32.0223 27.6029L38.7872 28.1677C38.1564 30.9243 36.714 33.4284 34.6458 35.357V35.357ZM37.2719 17.9136C37.9767 19.1348 38.495 20.4547 38.8089 21.8292L32.0231 22.3952C31.8835 21.9978 31.7099 21.6133 31.504 21.2461C31.2885 20.8819 31.0429 20.5367 30.7691 20.2137L34.6523 14.6319C35.6843 15.5891 36.5672 16.6955 37.2719 17.9136V17.9136ZM24.9813 10.8318C26.3989 10.8345 27.8081 11.0484 29.162 11.4668L26.2612 17.6188C25.4291 17.4754 24.579 17.4727 23.746 17.6112L20.8457 11.4592C22.1854 11.0454 23.5794 10.8341 24.9813 10.8318V10.8318ZM17.9239 12.7292C18.3633 12.4778 18.816 12.2509 19.2794 12.0484L22.4455 18.7767L21.6466 19.2408L20.8968 19.6725L16.6479 13.5613C17.0578 13.2612 17.4842 12.9836 17.9239 12.7292ZM15.3657 14.6334L19.2446 20.2198C18.7077 20.8685 18.2836 21.6027 17.9892 22.3917L11.2239 21.8269C11.8539 19.0688 13.2967 16.5632 15.3657 14.6334ZM12.7395 32.0768C12.0343 30.8556 11.5164 29.5357 11.2022 28.1612L17.988 27.5952C18.1291 27.9919 18.3042 28.3755 18.5113 28.7417C18.726 29.1047 18.9712 29.4491 19.2439 29.7706L15.3603 35.362C14.3279 34.4036 13.4443 33.2964 12.7395 32.0768V32.0768ZM20.8525 38.5137L23.7483 32.3686C24.1717 32.446 24.6011 32.4872 25.0313 32.4917C25.4451 32.4875 25.8581 32.4494 26.2654 32.3766L29.1631 38.5236C26.4542 39.3527 23.5592 39.3493 20.8525 38.5137V38.5137ZM30.7332 37.9462L27.5674 31.2137L28.3664 30.7496L29.1162 30.3179L33.3651 36.4291C32.5482 37.0301 31.6672 37.5393 30.7386 37.9462H30.7332Z" fill="#222222"/>
<path d="M25.868 21.777C24.3322 21.3655 22.7197 22.0966 22.0169 23.5226C21.314 24.9485 21.7163 26.6727 22.9779 27.6403C24.2395 28.6078 26.0087 28.5495 27.204 27.5011C28.3988 26.4523 28.6868 24.7056 27.8916 23.3288C27.4519 22.5619 26.723 22.0028 25.868 21.777ZM26.6178 25.4268C26.3939 26.2608 25.5701 26.786 24.7197 26.6365C23.8692 26.4866 23.2739 25.712 23.3482 24.8517C23.4226 23.9913 24.1419 23.3303 25.0057 23.3288C25.1522 23.3292 25.2982 23.3487 25.4397 23.3864C25.8665 23.5008 26.2307 23.7804 26.4515 24.1629C26.6723 24.5458 26.7322 25.0008 26.6178 25.4275V25.4268Z" fill="#222222"/>
<path d="M20.007 5.00018C20.007 5.46012 19.634 5.83311 19.1737 5.83311C18.7138 5.83311 18.3404 5.46012 18.3404 5.00018C18.3404 4.53986 18.7138 4.16687 19.1737 4.16687C19.634 4.16687 20.007 4.53986 20.007 5.00018Z" fill="#222222"/>
</g>
<defs>
<clipPath id="clip0">
<rect width="50" height="50" fill="white"/>
</clipPath>
</defs>
</svg>
