<svg width="50" height="50" viewBox="0 0 50 50" fill="none" xmlns="http://www.w3.org/2000/svg">
<path d="M42.1117 41.7476H38.6224L27.5625 0.807403C27.4339 0.330947 27.0016 0 26.5082 0H23.492C22.9986 0 22.5663 0.330947 22.4377 0.807403L11.3777 41.7476H7.88838C7.2851 41.7476 6.79614 42.2365 6.79614 42.8398V48.2828C6.79614 48.886 7.2851 49.375 7.88838 49.375H42.1117C42.715 49.375 43.2039 48.886 43.2039 48.2828V42.8398C43.2039 42.2365 42.715 41.7476 42.1117 41.7476ZM30.4008 17.3762H19.5993L21.292 10.4854H28.7082L30.4008 17.3762ZM30.9909 18.9357L32.6839 25.8277H17.3162L19.0091 18.9357H30.9909ZM33.2741 27.3871L34.9668 34.2782H15.0333L16.726 27.3871H33.2741ZM23.7033 1.55947H26.2969L28.1181 8.92597H21.8822L23.7033 1.55947ZM14.4432 35.8376H35.5569L36.9846 41.7476H13.0154L14.4432 35.8376ZM41.6444 47.8155H8.35561V43.307H41.6444V47.8155Z" fill="#222222"/>
</svg>
