<svg width="50" height="50" viewBox="0 0 50 50" fill="none" xmlns="http://www.w3.org/2000/svg">
<path d="M44.1667 1.66663H5.83333C2.61323 1.67027 0.00364583 4.27986 0 7.49996V34.1666C0.00364583 37.3867 2.61323 39.9963 5.83333 40H18.88L16.88 46.6666H14.1667V48.3333H35.8333V46.6666H33.12L31.12 40H44.1667C47.3868 39.9963 49.9964 37.3867 50 34.1666V7.49996C49.9964 4.27986 47.3868 1.67027 44.1667 1.66663ZM31.38 46.6666H18.62L20.62 40H29.38L31.38 46.6666ZM48.3333 34.1666C48.3306 36.4666 46.4667 38.3306 44.1667 38.3333H5.83333C3.53333 38.3306 1.66937 36.4666 1.66667 34.1666V33.3333H48.3333V34.1666ZM48.3333 31.6666H1.66667V7.49996C1.66937 5.19996 3.53333 3.336 5.83333 3.33329H44.1667C46.4667 3.336 48.3306 5.19996 48.3333 7.49996V31.6666Z" fill="#222222"/>
<path d="M35 13.3333H32.9167L30.6667 10.3333C30.5093 10.1235 30.2623 10 30 10H21.6667C21.4044 10 21.1574 10.1235 21 10.3333L18.6909 13.4167L14.8334 14.1833C14.4453 14.2625 14.1666 14.604 14.1667 15V19.1667C14.1667 19.6269 14.5398 20 15 20H17.6534C18.1049 21.296 19.5216 21.9806 20.8175 21.5292C21.5339 21.2796 22.0971 20.7165 22.3467 20H27.6534C28.1049 21.296 29.5216 21.9806 30.8175 21.5292C31.5339 21.2796 32.0971 20.7165 32.3467 20H35C35.4602 20 35.8334 19.6269 35.8334 19.1667V14.1667C35.8334 13.7065 35.4602 13.3333 35 13.3333ZM20 20C19.5398 20 19.1667 19.6269 19.1667 19.1667C19.1667 18.7065 19.5398 18.3333 20 18.3333C20.4602 18.3333 20.8334 18.7065 20.8334 19.1667C20.8334 19.6269 20.4602 20 20 20ZM30 20C29.5398 20 29.1667 19.6269 29.1667 19.1667C29.1667 18.7065 29.5398 18.3333 30 18.3333C30.4602 18.3333 30.8334 18.7065 30.8334 19.1667C30.8334 19.6269 30.4602 20 30 20ZM34.1667 18.3333H32.3575C32.3475 18.305 32.3325 18.28 32.3217 18.25C32.3034 18.2033 32.2817 18.1592 32.2609 18.1142C32.2177 18.0219 32.169 17.9323 32.115 17.8458C32.09 17.805 32.0659 17.7625 32.0375 17.725C31.9676 17.6266 31.8907 17.5333 31.8075 17.4458C31.79 17.4275 31.775 17.4067 31.7575 17.3892C31.6545 17.2874 31.5429 17.1945 31.4242 17.1117C31.3884 17.0917 31.3517 17.0725 31.3175 17.0508C31.2269 16.9939 31.1328 16.9427 31.0359 16.8975C30.99 16.8767 30.9434 16.8583 30.8959 16.84C30.798 16.8022 30.6978 16.7709 30.5959 16.7467C30.55 16.735 30.5059 16.7217 30.4592 16.7133C30.1568 16.6514 29.8449 16.6514 29.5425 16.7133C29.4959 16.7217 29.4517 16.735 29.4059 16.7467C29.3039 16.7709 29.2037 16.8022 29.1059 16.84C29.0584 16.8583 29.0125 16.8767 28.9667 16.8975C28.8693 16.9425 28.7749 16.9936 28.6842 17.0508C28.65 17.0725 28.6134 17.0917 28.58 17.1142C28.4613 17.197 28.3497 17.2899 28.2467 17.3917C28.2292 17.4092 28.2142 17.43 28.1967 17.4483C28.1135 17.5358 28.0366 17.6291 27.9667 17.7275C27.9392 17.7667 27.9142 17.8108 27.8892 17.8483C27.8352 17.9348 27.7865 18.0244 27.7434 18.1167C27.7217 18.1617 27.7009 18.2058 27.6825 18.2525C27.6717 18.28 27.6567 18.305 27.6467 18.3358H22.3575C22.3475 18.3075 22.3325 18.2825 22.3217 18.2525C22.3034 18.2058 22.2817 18.1617 22.2609 18.1167C22.2177 18.0244 22.169 17.9348 22.115 17.8483C22.09 17.8075 22.0659 17.765 22.0375 17.7275C21.9676 17.6291 21.8907 17.5358 21.8075 17.4483C21.79 17.43 21.775 17.4092 21.7575 17.3917C21.6545 17.2899 21.5429 17.197 21.4242 17.1142C21.3909 17.0917 21.3542 17.0725 21.32 17.0508C21.2294 16.9939 21.1353 16.9427 21.0384 16.8975C20.9925 16.8767 20.9459 16.8583 20.8984 16.84C20.8005 16.8022 20.7003 16.7709 20.5984 16.7467C20.5525 16.735 20.5084 16.7217 20.4617 16.7133C20.1593 16.6514 19.8474 16.6514 19.545 16.7133C19.4984 16.7217 19.4542 16.735 19.4084 16.7467C19.3064 16.7709 19.2062 16.8022 19.1084 16.84C19.0609 16.8583 19.015 16.8767 18.9692 16.8975C18.8718 16.9425 18.7774 16.9936 18.6867 17.0508C18.6525 17.0725 18.6159 17.0917 18.5825 17.1142C18.4638 17.197 18.3522 17.2899 18.2492 17.3917C18.2317 17.4092 18.2167 17.43 18.1992 17.4483C18.116 17.5358 18.0391 17.6291 17.9692 17.7275C17.9417 17.7667 17.9167 17.8108 17.8917 17.8483C17.8377 17.9348 17.789 18.0244 17.7459 18.1167C17.7242 18.1617 17.7034 18.2058 17.685 18.2525C17.6742 18.28 17.6592 18.305 17.6492 18.3358H15.8334V15.6825L19.3334 14.9833C19.5334 14.9431 19.7115 14.8303 19.8334 14.6667L22.0834 11.6667H29.5834L31.8334 14.6667C31.9907 14.8765 32.2377 15 32.5 15H34.1667V18.3333Z" fill="#222222"/>
<path d="M15.5892 8.57742C15.4329 8.42117 15.2211 8.33325 15 8.33325H11.6667V9.99992H14.655L16.9109 12.2558L18.0892 11.0774L15.5892 8.57742Z" fill="#222222"/>
<path d="M46.6667 6.66663H40V8.33329H46.6667V6.66663Z" fill="#222222"/>
<path d="M46.6667 10H40V11.6667H46.6667V10Z" fill="#222222"/>
<path d="M46.6667 15H40V16.6667H46.6667V15Z" fill="#222222"/>
<path d="M46.6667 18.3333H40V19.9999H46.6667V18.3333Z" fill="#222222"/>
<path d="M35 8.33325C34.779 8.33325 34.5671 8.42117 34.4108 8.57742L32.7442 10.2441L33.9225 11.4224L35.345 9.99992H38.3333V8.33325H35Z" fill="#222222"/>
<path d="M10 6.66663H3.33334V8.33329H10V6.66663Z" fill="#222222"/>
<path d="M10 10H3.33334V11.6667H10V10Z" fill="#222222"/>
<path d="M10 15H3.33334V16.6667H10V15Z" fill="#222222"/>
<path d="M10 18.3333H3.33334V19.9999H10V18.3333Z" fill="#222222"/>
<path d="M8.33332 24.1666H4.99999C4.53978 24.1666 4.16666 24.5398 4.16666 25V28.3333C4.16666 28.7935 4.53978 29.1666 4.99999 29.1666H8.33332C8.79353 29.1666 9.16666 28.7935 9.16666 28.3333V25C9.16666 24.5398 8.79353 24.1666 8.33332 24.1666ZM7.49999 27.5H5.83332V25.8333H7.49999V27.5Z" fill="#222222"/>
<path d="M18.3333 23.3334H13.3333C12.8731 23.3334 12.5 23.7065 12.5 24.1667V29.1667C12.5 29.6269 12.8731 30 13.3333 30H18.3333C18.7935 30 19.1667 29.6269 19.1667 29.1667V24.1667C19.1667 23.7065 18.7935 23.3334 18.3333 23.3334ZM17.5 28.3334H14.1667V25H17.5V28.3334Z" fill="#222222"/>
<path d="M26.6667 24.1666H23.3333C22.8731 24.1666 22.5 24.5398 22.5 25V28.3333C22.5 28.7935 22.8731 29.1666 23.3333 29.1666H26.6667C27.1269 29.1666 27.5 28.7935 27.5 28.3333V25C27.5 24.5398 27.1269 24.1666 26.6667 24.1666ZM25.8333 27.5H24.1667V25.8333H25.8333V27.5Z" fill="#222222"/>
<path d="M35.8333 24.1666H32.5C32.0398 24.1666 31.6667 24.5398 31.6667 25V28.3333C31.6667 28.7935 32.0398 29.1666 32.5 29.1666H35.8333C36.2935 29.1666 36.6667 28.7935 36.6667 28.3333V25C36.6667 24.5398 36.2935 24.1666 35.8333 24.1666ZM35 27.5H33.3333V25.8333H35V27.5Z" fill="#222222"/>
<path d="M45 24.1666H41.6667C41.2065 24.1666 40.8333 24.5398 40.8333 25V28.3333C40.8333 28.7935 41.2065 29.1666 41.6667 29.1666H45C45.4602 29.1666 45.8333 28.7935 45.8333 28.3333V25C45.8333 24.5398 45.4602 24.1666 45 24.1666ZM44.1667 27.5H42.5V25.8333H44.1667V27.5Z" fill="#222222"/>
<path d="M30.8333 6.66663H19.1667V8.33329H30.8333V6.66663Z" fill="#222222"/>
</svg>
