<svg width="102" height="40" viewBox="0 0 102 40" fill="none" xmlns="http://www.w3.org/2000/svg">
<g clip-path="url(#clip0)">
<path d="M12.7236 34.1637L3.43134 33.0249H3.35986C2.07324 32.7402 1.07254 31.8149 0.643669 30.5338C0.500712 30.0356 0.286276 29.1815 0.143318 27.9715C-0.0711174 26.548 0.286276 25.1246 1.07254 23.9858L1.64437 23.1317L1.85881 14.0214C2.07324 11.5302 4.93239 9.18149 7.64857 9.18149C11.7229 9.18149 15.6542 7.11744 19.7999 4.98221C24.4461 2.4911 29.2351 0 35.0249 0H48.7488C56.6114 0 67.7621 7.68683 72.4082 11.1032C75.4103 11.3879 94.1377 12.9537 97.4257 14.8754C100.356 16.5836 100.499 20.0712 100.356 21.4947C100.785 21.637 101.143 21.9217 101.429 22.2064C101.857 22.7046 102.143 23.4164 102.072 24.1281L101.643 29.5374C101.5 31.1744 100.356 32.5267 98.7123 32.8826L91.9933 33.879H91.9219H91.493C91.0641 33.879 90.7782 33.5943 90.7782 33.1673C90.7782 33.0961 90.7782 32.9537 90.8497 32.8826C90.9926 32.3132 90.9927 31.7438 90.9927 31.1744C90.9927 26.121 86.8469 21.9929 81.7719 21.9929C76.6969 21.9929 72.5512 26.121 72.5512 31.1744C72.5512 31.8861 72.6226 32.5267 72.7656 33.2384C72.8371 33.452 72.7656 33.6655 72.6226 33.8078C72.4797 33.9502 72.2653 34.0925 72.0508 34.0925L32.1657 34.1637C31.7369 34.1637 31.451 33.879 31.451 33.452C31.451 33.3808 31.451 33.2384 31.5224 33.1673C31.6654 32.4555 31.7369 31.7438 31.7369 31.1032C31.7369 26.0498 27.5911 21.9217 22.5161 21.9217C17.4411 21.9217 13.2954 26.0498 13.2954 31.1032C13.2954 31.8149 13.3669 32.5267 13.5813 33.3096C13.6528 33.5231 13.5813 33.7367 13.4383 33.9502C13.2954 34.0925 13.0809 34.2349 12.8665 34.2349H12.7236C12.795 34.1637 12.7236 34.1637 12.7236 34.1637ZM92.3507 31.1744C92.3507 31.6014 92.3507 31.9573 92.2793 32.3843L98.3549 31.4591C99.3557 31.2456 100.07 30.3915 100.142 29.395L100.571 23.9858C100.571 23.7011 100.499 23.3452 100.285 23.1317C100.07 22.9181 99.7845 22.7758 99.4271 22.7046C99.2127 22.7046 99.0697 22.5623 98.9268 22.4199C98.7838 22.2776 98.7838 22.0641 98.7838 21.8505C98.7838 21.7794 99.4986 17.6512 96.6395 16.0142C93.9948 14.5196 77.9835 12.8826 72.0508 12.3843C71.9079 12.3843 71.7649 12.3132 71.6934 12.242C68.2625 9.82206 56.4685 1.42349 48.7488 1.42349H35.0249C29.5925 1.42349 24.9464 3.84342 20.4432 6.19217C16.1545 8.39858 12.0802 10.5338 7.64857 10.5338C5.64717 10.5338 3.43134 12.3132 3.2169 14.0214L3.00246 23.274C3.00246 23.4164 2.93098 23.5587 2.85951 23.6299L2.14472 24.6975C1.57289 25.5516 1.28698 26.6192 1.42993 27.6868C1.64437 29.1815 1.78733 29.8221 1.85881 30.0356C2.14472 30.8185 2.71655 31.3879 3.50281 31.6014L11.9373 32.5979C11.8658 32.0996 11.7943 31.5302 11.7943 31.032C11.7943 25.1957 16.5834 20.427 22.4446 20.427C28.3059 20.427 33.095 25.1957 33.095 31.032C33.095 31.6014 33.0235 32.0996 32.952 32.669H71.0501C70.9786 32.1708 70.9072 31.6014 70.9072 31.1032C70.9072 25.2669 75.6962 20.4982 81.5575 20.4982C87.5617 20.5694 92.3507 25.3381 92.3507 31.1744ZM93.6374 20.427C92.8511 19.8577 92.2793 19.2171 91.8504 18.5765C91.2071 17.5089 91.493 16.7972 91.7074 16.4413C92.4222 15.4448 94.3521 15.6584 96.0676 16.8683C96.8539 17.4377 97.4257 18.0783 97.8546 18.7189C98.4979 19.7865 98.212 20.4982 97.9976 20.8541C97.7116 21.2811 97.2113 21.4947 96.568 21.4947C95.7102 21.5658 94.6381 21.1388 93.6374 20.427ZM96.8539 20.0712C96.9254 19.8577 96.4965 18.9324 95.2814 18.0783C94.4236 17.4377 93.6374 17.2242 93.2085 17.2242C92.994 17.2242 92.9226 17.2954 92.9226 17.2954C92.8511 17.5089 93.28 18.4342 94.4951 19.2883C95.3528 19.9288 96.1391 20.1423 96.568 20.1423C96.7824 20.1423 96.8539 20.0712 96.8539 20.0712ZM67.4762 12.3843L48.4629 11.8149L46.8189 11.7438C46.4615 11.7438 46.1041 11.3879 46.1041 11.032V2.70463C46.1041 2.27758 46.39 1.99288 46.8189 1.99288H48.6058C54.8245 1.99288 62.6156 7.40214 67.2617 10.6762L67.8336 11.1032C68.1195 11.3167 68.191 11.6014 68.1195 11.8861C68.1195 12.1708 67.8336 12.3843 67.4762 12.3843ZM47.6051 3.41637V10.3203L65.1174 10.8897C60.5428 7.75801 53.8952 3.48754 48.6773 3.48754H47.6051V3.41637ZM44.6745 11.6014L29.3781 11.032C29.1636 11.032 28.9492 10.8897 28.8062 10.6762C28.6633 10.4626 28.6633 10.2491 28.7348 10.0356L32.0943 2.56228C32.1657 2.27758 32.3802 2.13523 32.6661 2.13523L44.6745 1.99288C44.8889 1.99288 45.0319 2.06406 45.1749 2.20641C45.3178 2.34875 45.3893 2.4911 45.3893 2.70463V10.8897C45.3893 11.1032 45.3178 11.2456 45.1749 11.3879C45.0319 11.5302 44.8889 11.6014 44.6745 11.6014ZM33.1664 3.55872L30.4503 9.67972L43.9597 10.1779V3.41637L33.1664 3.55872ZM26.9478 10.9609L22.5161 10.8185C22.1587 10.8185 21.8013 10.4626 21.8013 10.1068V9.03915C21.8013 8.11388 22.3017 7.18861 23.088 6.69039C24.8749 5.62278 28.02 3.70107 29.521 3.13167C29.8069 3.0605 30.0929 3.13167 30.3073 3.27402C30.5217 3.48754 30.5932 3.77224 30.4503 4.05694L27.6626 10.4626C27.5196 10.7473 27.3052 10.9609 26.9478 10.9609C27.0193 10.9609 26.9478 10.9609 26.9478 10.9609ZM23.8742 7.90036C23.5168 8.11388 23.2309 8.54093 23.2309 9.03915V9.39502L26.5189 9.53737L28.3774 5.2669C27.2337 5.8363 25.6612 6.76157 23.8742 7.90036Z" fill="#E23535"/>
<path d="M73.1943 31.5302C73.1943 26.8327 76.9827 23.0605 81.7003 23.0605C86.4179 23.0605 90.2062 26.8327 90.2062 31.5302C90.2062 36.2277 86.4179 40 81.7003 40C76.9827 40 73.1943 36.1566 73.1943 31.5302ZM74.6239 31.5302C74.6239 35.4448 77.769 38.5765 81.7003 38.5765C85.6316 38.5765 88.7767 35.4448 88.7767 31.5302C88.7767 27.6156 85.6316 24.484 81.7003 24.484C77.769 24.484 74.6239 27.6156 74.6239 31.5302ZM75.9105 31.5302C75.9105 28.3986 78.4837 25.8363 81.6288 25.8363C84.7739 25.8363 87.3471 28.3986 87.3471 31.5302C87.3471 34.6619 84.7739 37.2242 81.6288 37.2242C78.4837 37.2954 75.9105 34.7331 75.9105 31.5302ZM77.3401 31.5302C77.3401 33.879 79.27 35.8007 81.6288 35.8007C83.9876 35.8007 85.9175 33.879 85.9175 31.5302C85.9175 29.1815 83.9876 27.2598 81.6288 27.2598C79.27 27.2598 77.3401 29.1815 77.3401 31.5302Z" fill="#E23535"/>
<path d="M14.0098 31.5302C14.0098 26.8327 17.7981 23.0605 22.5157 23.0605C27.2333 23.0605 31.0217 26.8327 31.0217 31.5302C31.0217 36.2277 27.1618 40 22.5157 40C17.8696 40 14.0098 36.2277 14.0098 31.5302ZM15.4393 31.5302C15.4393 35.4448 18.5844 38.5765 22.5157 38.5765C26.447 38.5765 29.5921 35.4448 29.5921 31.5302C29.5921 27.6156 26.447 24.484 22.5157 24.484C18.5844 24.484 15.4393 27.6868 15.4393 31.5302ZM16.726 31.6014C16.726 28.4697 19.2992 25.9075 22.4442 25.9075C25.5893 25.9075 28.1625 28.4697 28.1625 31.6014C28.1625 34.7331 25.5893 37.2954 22.4442 37.2954C19.2992 37.2954 16.726 34.7331 16.726 31.6014ZM18.1555 31.6014C18.1555 33.9502 20.0854 35.8719 22.4442 35.8719C24.803 35.8719 26.733 33.9502 26.733 31.6014C26.733 29.2527 24.803 27.3309 22.4442 27.3309C20.0854 27.3309 18.1555 29.2527 18.1555 31.6014Z" fill="#E23535"/>
<path d="M53.0373 17.0107C53.3947 17.0107 53.7521 16.726 53.7521 16.2989C53.7521 15.8719 53.4662 15.5872 53.0373 15.5872L49.249 15.4448C48.8201 15.4448 48.5342 15.7295 48.5342 16.1566C48.5342 16.5836 48.8201 16.8683 49.249 16.8683L53.0373 17.0107C52.9659 17.0107 53.0373 17.0107 53.0373 17.0107Z" fill="#E23535"/>
<path d="M33.1662 16.2989C33.5236 16.2989 33.881 16.0142 33.881 15.5872C33.881 15.1601 33.5951 14.8754 33.1662 14.8754L29.3779 14.7331C28.949 14.7331 28.6631 15.0178 28.6631 15.4448C28.6631 15.8719 28.949 16.1566 29.3779 16.1566L33.1662 16.2989Z" fill="#E23535"/>
</g>
<defs>
<clipPath id="clip0">
<rect width="102" height="40" fill="white"/>
</clipPath>
</defs>
</svg>
