<svg width="102" height="40" viewBox="0 0 102 40" fill="none" xmlns="http://www.w3.org/2000/svg">
<g clip-path="url(#clip0)">
<path d="M12.7232 34.1637L3.43097 33.0249H3.35949C2.07288 32.7402 1.07217 31.8149 0.643303 30.5338C0.500345 30.0356 0.28591 29.1815 0.142952 27.9715C-0.0714836 26.548 0.28591 25.1246 1.07217 23.9858L1.644 23.1317L1.85844 14.0214C2.07288 11.5302 4.93202 9.18149 7.64821 9.18149C11.7225 9.18149 15.6538 7.11744 19.7996 4.98221C24.4457 2.4911 29.2348 0 35.0245 0H48.7484C56.6111 0 67.7617 7.68683 72.4078 11.1032C75.4099 11.3879 94.1373 12.9537 97.4254 14.8754C100.356 16.5836 100.499 20.0712 100.356 21.4947C100.785 21.637 101.142 21.9217 101.428 22.2064C101.857 22.7046 102.143 23.4164 102.071 24.1281L101.643 29.5374C101.5 31.1744 100.356 32.5267 98.712 32.8826L91.993 33.879H91.9215H91.4926C91.0638 33.879 90.7778 33.5943 90.7778 33.1673C90.7778 33.0961 90.7778 32.9537 90.8493 32.8826C90.9923 32.3132 90.9923 31.7438 90.9923 31.1744C90.9923 26.121 86.8465 21.9929 81.7715 21.9929C76.6966 21.9929 72.5508 26.121 72.5508 31.1744C72.5508 31.8861 72.6223 32.5267 72.7652 33.2384C72.8367 33.452 72.7652 33.6655 72.6223 33.8078C72.4793 33.9502 72.2649 34.0925 72.0505 34.0925L32.1654 34.1637C31.7365 34.1637 31.4506 33.879 31.4506 33.452C31.4506 33.3808 31.4506 33.2384 31.5221 33.1673C31.665 32.4555 31.7365 31.7438 31.7365 31.1032C31.7365 26.0498 27.5907 21.9217 22.5158 21.9217C17.4408 21.9217 13.295 26.0498 13.295 31.1032C13.295 31.8149 13.3665 32.5267 13.5809 33.3096C13.6524 33.5231 13.5809 33.7367 13.438 33.9502C13.295 34.0925 13.0806 34.2349 12.8661 34.2349H12.7232C12.7947 34.1637 12.7232 34.1637 12.7232 34.1637ZM92.3504 31.1744C92.3504 31.6014 92.3504 31.9573 92.2789 32.3843L98.3546 31.4591C99.3553 31.2456 100.07 30.3915 100.142 29.395L100.57 23.9858C100.57 23.7011 100.499 23.3452 100.285 23.1317C100.07 22.9181 99.7842 22.7758 99.4268 22.7046C99.2123 22.7046 99.0694 22.5623 98.9264 22.4199C98.7834 22.2776 98.7834 22.0641 98.7834 21.8505C98.7834 21.7794 99.4982 17.6512 96.6391 16.0142C93.9944 14.5196 77.9832 12.8826 72.0505 12.3843C71.9075 12.3843 71.7645 12.3132 71.6931 12.242C68.2621 9.82206 56.4681 1.42349 48.7484 1.42349H35.0245C29.5921 1.42349 24.946 3.84342 20.4429 6.19217C16.1542 8.39858 12.0799 10.5338 7.64821 10.5338C5.64681 10.5338 3.43097 12.3132 3.21653 14.0214L3.0021 23.274C3.0021 23.4164 2.93062 23.5587 2.85914 23.6299L2.14435 24.6975C1.57252 25.5516 1.28661 26.6192 1.42957 27.6868C1.644 29.1815 1.78696 29.8221 1.85844 30.0356C2.14435 30.8185 2.71618 31.3879 3.50245 31.6014L11.9369 32.5979C11.8654 32.0996 11.794 31.5302 11.794 31.032C11.794 25.1957 16.583 20.427 22.4443 20.427C28.3055 20.427 33.0946 25.1957 33.0946 31.032C33.0946 31.6014 33.0231 32.0996 32.9516 32.669H71.0498C70.9783 32.1708 70.9068 31.6014 70.9068 31.1032C70.9068 25.2669 75.6959 20.4982 81.5571 20.4982C87.5613 20.5694 92.3504 25.3381 92.3504 31.1744ZM93.637 20.427C92.8507 19.8577 92.2789 19.2171 91.85 18.5765C91.2067 17.5089 91.4926 16.7972 91.7071 16.4413C92.4219 15.4448 94.3518 15.6584 96.0673 16.8683C96.8535 17.4377 97.4254 18.0783 97.8542 18.7189C98.4975 19.7865 98.2116 20.4982 97.9972 20.8541C97.7113 21.2811 97.2109 21.4947 96.5676 21.4947C95.7099 21.5658 94.6377 21.1388 93.637 20.427ZM96.8535 20.0712C96.925 19.8577 96.4961 18.9324 95.281 18.0783C94.4233 17.4377 93.637 17.2242 93.2081 17.2242C92.9937 17.2242 92.9222 17.2954 92.9222 17.2954C92.8507 17.5089 93.2796 18.4342 94.4947 19.2883C95.3525 19.9288 96.1387 20.1423 96.5676 20.1423C96.7821 20.1423 96.8535 20.0712 96.8535 20.0712ZM67.4758 12.3843L48.4625 11.8149L46.8185 11.7438C46.4611 11.7438 46.1037 11.3879 46.1037 11.032V2.70463C46.1037 2.27758 46.3896 1.99288 46.8185 1.99288H48.6055C54.8241 1.99288 62.6153 7.40214 67.2614 10.6762L67.8332 11.1032C68.1191 11.3167 68.1906 11.6014 68.1191 11.8861C68.1191 12.1708 67.8332 12.3843 67.4758 12.3843ZM47.6048 3.41637V10.3203L65.117 10.8897C60.5424 7.75801 53.8949 3.48754 48.6769 3.48754H47.6048V3.41637ZM44.6741 11.6014L29.3777 11.032C29.1633 11.032 28.9488 10.8897 28.8059 10.6762C28.6629 10.4626 28.6629 10.2491 28.7344 10.0356L32.0939 2.56228C32.1654 2.27758 32.3798 2.13523 32.6657 2.13523L44.6741 1.99288C44.8886 1.99288 45.0315 2.06406 45.1745 2.20641C45.3174 2.34875 45.3889 2.4911 45.3889 2.70463V10.8897C45.3889 11.1032 45.3174 11.2456 45.1745 11.3879C45.0315 11.5302 44.8886 11.6014 44.6741 11.6014ZM33.1661 3.55872L30.4499 9.67972L43.9593 10.1779V3.41637L33.1661 3.55872ZM26.9474 10.9609L22.5158 10.8185C22.1584 10.8185 21.801 10.4626 21.801 10.1068V9.03915C21.801 8.11388 22.3013 7.18861 23.0876 6.69039C24.8746 5.62278 28.0196 3.70107 29.5207 3.13167C29.8066 3.0605 30.0925 3.13167 30.3069 3.27402C30.5214 3.48754 30.5928 3.77224 30.4499 4.05694L27.6622 10.4626C27.5193 10.7473 27.3048 10.9609 26.9474 10.9609C27.0189 10.9609 26.9474 10.9609 26.9474 10.9609ZM23.8739 7.90036C23.5165 8.11388 23.2305 8.54093 23.2305 9.03915V9.39502L26.5186 9.53737L28.377 5.2669C27.2334 5.8363 25.6608 6.76157 23.8739 7.90036Z" fill="#222222"/>
<path d="M73.1941 31.5302C73.1941 26.8327 76.9825 23.0605 81.7 23.0605C86.4176 23.0605 90.206 26.8327 90.206 31.5302C90.206 36.2277 86.4176 40 81.7 40C76.9825 40 73.1941 36.1566 73.1941 31.5302ZM74.6237 31.5302C74.6237 35.4448 77.7687 38.5765 81.7 38.5765C85.6314 38.5765 88.7764 35.4448 88.7764 31.5302C88.7764 27.6156 85.6314 24.484 81.7 24.484C77.7687 24.484 74.6237 27.6156 74.6237 31.5302ZM75.9103 31.5302C75.9103 28.3986 78.4835 25.8363 81.6286 25.8363C84.7736 25.8363 87.3469 28.3986 87.3469 31.5302C87.3469 34.6619 84.7736 37.2242 81.6286 37.2242C78.4835 37.2954 75.9103 34.7331 75.9103 31.5302ZM77.3398 31.5302C77.3398 33.879 79.2698 35.8007 81.6286 35.8007C83.9874 35.8007 85.9173 33.879 85.9173 31.5302C85.9173 29.1815 83.9874 27.2598 81.6286 27.2598C79.2698 27.2598 77.3398 29.1815 77.3398 31.5302Z" fill="#222222"/>
<path d="M14.0098 31.5302C14.0098 26.8327 17.7982 23.0605 22.5158 23.0605C27.2334 23.0605 31.0217 26.8327 31.0217 31.5302C31.0217 36.2277 27.1619 40 22.5158 40C17.8697 40 14.0098 36.2277 14.0098 31.5302ZM15.4394 31.5302C15.4394 35.4448 18.5845 38.5765 22.5158 38.5765C26.4471 38.5765 29.5922 35.4448 29.5922 31.5302C29.5922 27.6156 26.4471 24.484 22.5158 24.484C18.5845 24.484 15.4394 27.6868 15.4394 31.5302ZM16.726 31.6014C16.726 28.4697 19.2992 25.9075 22.4443 25.9075C25.5894 25.9075 28.1626 28.4697 28.1626 31.6014C28.1626 34.7331 25.5894 37.2954 22.4443 37.2954C19.2992 37.2954 16.726 34.7331 16.726 31.6014ZM18.1556 31.6014C18.1556 33.9502 20.0855 35.8719 22.4443 35.8719C24.8031 35.8719 26.733 33.9502 26.733 31.6014C26.733 29.2527 24.8031 27.3309 22.4443 27.3309C20.0855 27.3309 18.1556 29.2527 18.1556 31.6014Z" fill="#222222"/>
<path d="M53.0371 17.0107C53.3945 17.0107 53.7519 16.726 53.7519 16.2989C53.7519 15.8719 53.466 15.5872 53.0371 15.5872L49.2488 15.4448C48.8199 15.4448 48.534 15.7295 48.534 16.1566C48.534 16.5836 48.8199 16.8683 49.2488 16.8683L53.0371 17.0107C52.9657 17.0107 53.0371 17.0107 53.0371 17.0107Z" fill="#222222"/>
<path d="M33.1661 16.2989C33.5235 16.2989 33.8808 16.0142 33.8808 15.5872C33.8808 15.1601 33.5949 14.8754 33.1661 14.8754L29.3777 14.7331C28.9488 14.7331 28.6629 15.0178 28.6629 15.4448C28.6629 15.8719 28.9488 16.1566 29.3777 16.1566L33.1661 16.2989Z" fill="#222222"/>
</g>
<defs>
<clipPath id="clip0">
<rect width="102" height="40" fill="white"/>
</clipPath>
</defs>
</svg>
